<svg width="151" height="32" viewBox="0 0 151 32" fill="none" xmlns="http://www.w3.org/2000/svg">
<path d="M87.1044 6.70295C90.4231 4.35042 92.7089 3.57025 94.4883 3.57025C95.6361 3.57025 96.1184 3.74279 96.4778 3.89282C90.6767 4.85379 91.0525 10.3308 85.205 10.3308C82.205 10.3308 79.4969 7.55289 77.4212 5.22437C75.4573 3.02413 73.2368 1.06393 70.2661 0.448046C70.9774 0.2858 71.7046 0.20377 72.4341 0.203491C76.3695 0.203491 78.7355 2.42849 81.3724 4.62799C83.4796 6.38563 86.298 8.03525 88.9033 8.03525C89.3084 8.03525 89.646 7.95949 89.9303 7.90997C88.8815 7.68717 87.9828 7.3511 87.1044 6.7022" fill="white"/>
<path d="M38.2875 28.9166C33.3161 28.9166 32.5585 24.1875 32.5585 22.5814C32.5585 20.9753 33.3161 16.3678 38.2875 16.3678C43.2589 16.3678 43.9858 20.9753 43.9858 22.5814C43.9858 24.1875 43.2581 28.9166 38.2875 28.9166ZM38.2875 13.6394C31.4977 13.6394 29.5578 18.9131 29.5578 22.5814C29.5578 26.3705 31.4977 31.6442 38.2875 31.6442C45.0765 31.6442 47.0172 26.3705 47.0172 22.5822C47.0172 18.9139 45.0773 13.6394 38.2875 13.6394ZM55.11 25.7036L50.2002 13.821H47.0172L54.9893 31.675H55.2316L63.2036 13.821H59.9906L55.11 25.7036ZM112.755 31.5227H115.787V13.8217H112.756L112.755 31.5227ZM127.339 16.2163C129.158 16.2163 131.007 17.307 132.068 18.4593L134.038 16.5493C132.341 14.7002 130.34 13.4886 127.339 13.4886C120.58 13.4886 118.579 18.9439 118.579 22.5814C118.579 26.3698 120.579 31.7958 127.339 31.7958C130.249 31.7958 132.28 30.7658 133.978 29.0681L132.219 26.8852C131.068 27.9767 129.309 29.0081 127.339 29.0081C122.368 28.9166 121.61 24.2183 121.61 22.5814C121.61 20.9746 122.368 16.2163 127.339 16.2163M141.77 22.3691L149.925 13.9117L149.895 13.8217H146.256L139.527 20.8538V13.821H136.527V31.5234H139.527V23.7937L146.802 31.5234H150.47L150.5 31.4327L141.77 22.3691ZM34.2051 11.7347C34.6675 11.7341 35.1108 11.5502 35.4377 11.2232C35.7647 10.8963 35.9486 10.453 35.9492 9.9906C35.9486 9.52821 35.7647 9.08493 35.4377 8.75797C35.1108 8.431 34.6675 8.24706 34.2051 8.24646C33.7427 8.24706 33.2994 8.431 32.9724 8.75797C32.6455 9.08493 32.4615 9.52821 32.4609 9.9906C32.4615 10.453 32.6455 10.8963 32.9724 11.2232C33.2994 11.5502 33.7427 11.7341 34.2051 11.7347ZM21.777 10.1234L14.901 25.006L8.02419 10.1226H7.8119L0.5 31.4949H1.51198C1.51198 31.4949 3.85926 31.54 4.55316 29.4072L8.29125 18.0647L14.7802 31.768H15.0218L21.5107 18.0639L25.2481 29.4072C25.942 31.54 28.29 31.4949 28.29 31.4949H29.302L21.9901 10.1241H21.777M104.313 22.3691H100.432V16.4578H104.221C106.737 16.4578 107.314 18.3985 107.314 19.3985C107.314 20.3384 106.737 22.3691 104.313 22.3691ZM104.07 13.821H97.4308V31.5234H100.432V25.0975H104.434C107.253 25.0975 110.284 22.8545 110.284 19.3992C110.284 17.0947 108.829 13.821 104.07 13.821ZM91.1091 24.6121L79.8326 13.5787L79.7118 13.6394V31.5234H82.7433V20.7323L93.9583 31.7965L94.1406 31.7357V13.8217H91.1091V24.6121ZM65.022 31.5227H76.8139V28.8258H68.0227V24.1275H74.904V21.4299H68.0227V16.4886H76.8139V13.821H65.022V31.5234M41.4435 11.7347C41.9059 11.7341 42.3491 11.5502 42.6761 11.2232C43.0031 10.8963 43.187 10.453 43.1876 9.9906C43.187 9.52821 43.0031 9.08493 42.6761 8.75797C42.3491 8.431 41.9059 8.24706 41.4435 8.24646C40.9811 8.24706 40.5378 8.431 40.2108 8.75797C39.8839 9.08493 39.6999 9.52821 39.6993 9.9906C39.6999 10.453 39.8839 10.8963 40.2108 11.2232C40.5378 11.5502 40.9811 11.7341 41.4435 11.7347Z" fill="white"/>
</svg>
