<svg width="171" height="40" viewBox="0 0 171 40" fill="none" xmlns="http://www.w3.org/2000/svg">
<g clip-path="url(#clip0_6652_22149)">
<path d="M20.2135 39.7134C9.34348 39.7134 0.5 30.8705 0.5 20.0006C0.5 9.13059 9.34348 0.287109 20.2135 0.287109C31.0834 0.287109 39.9269 9.13059 39.9269 20.0006C39.9269 30.8705 31.0834 39.7134 20.2135 39.7134ZM20.2135 1.39271C9.95296 1.39271 1.6056 9.74007 1.6056 20.0006C1.6056 30.2611 9.95296 38.6078 20.2135 38.6078C30.4739 38.6078 38.8213 30.2611 38.8213 20.0006C38.8213 9.74007 30.4739 1.39271 20.2135 1.39271Z" fill="white"/>
<path d="M11.8805 10.4194V6.67847H18.2294V5.37415H11.9365V3.10693L10.5195 3.67374V10.4194H11.8805Z" fill="white"/>
<path d="M20.8936 9.17318V6.73526H29.7371V5.37426H20.9503V1.17924L19.4766 1.12256V9.17318H20.8936Z" fill="white"/>
<path d="M33.5908 33.1519V6.62207L32.1738 5.48779V34.3428L33.5908 33.1519Z" fill="white"/>
<path d="M38.126 25.7259V13.7069L36.6523 10.8169V28.9573L38.126 25.7259Z" fill="white"/>
<path d="M36.7093 16.7689H33.4785L33.5352 15.8047H36.7093V16.7689Z" fill="white"/>
<path d="M36.7093 24.0817H33.4785L33.5352 23.1182H36.7093V24.0817Z" fill="white"/>
<path d="M6.72266 33.1519V6.62207L8.13967 5.48779V34.3428L6.72266 33.1519Z" fill="white"/>
<path d="M2.1875 25.7259V13.7069L3.66119 10.8169V28.9573L2.1875 25.7259Z" fill="white"/>
<path d="M3.60352 16.7689H6.83497L6.77895 15.8047H3.60352V16.7689Z" fill="white"/>
<path d="M3.60352 24.0817H6.83497L6.77895 23.1182H3.60352V24.0817Z" fill="white"/>
<path d="M24.1755 8.94678H25.5806V10.7606H29.8503V15.0123H28.3766V12.1776H25.5806V14.048H24.1755V12.1769H19.7031V10.7539H24.1755V8.94678Z" fill="white"/>
<path d="M16.2924 10.6984V12.4655H17.8914V13.8965H10.5977V12.5495H14.918V9.35205H18.1995V10.6997H16.2924" fill="white"/>
<path d="M14.946 16.0569V14.934H16.3203V16.0556H19.5178V13.7563H20.8928V16.0569H24.1756V14.9353H25.5773V16.0569H29.7569V17.3466H25.5813V20.7687H24.1756V17.3466H20.8928V21.1335H19.5191V17.3466H16.323V20.7687H14.9467V17.3466H10.6543V16.0569H14.946Z" fill="white"/>
<path d="M10.625 21.3857L10.541 36.1967L12.0554 36.9542V28.2021H19.1524V21.3857H10.625ZM17.7221 26.9398H12.0554V25.5641H17.7221V26.9398ZM17.7221 24.1904H12.0554V22.7874H17.7221V24.1904Z" fill="white"/>
<path d="M29.8966 36.1967L29.8126 21.3857H21.2852V28.2021H28.3815V36.9542L29.8966 36.1967ZM22.7155 22.7894H28.3815V24.1918H22.7155V22.7894ZM22.7155 25.5661H28.3815V26.9411H22.7155V25.5661Z" fill="white"/>
<path d="M15.0859 36.1683H25.5205V29.436H15.0859V36.1683ZM24.0895 34.878H16.4316V33.587H24.0895V34.878ZM24.0895 32.2127H16.4316V30.9217H24.0895V32.2127Z" fill="white"/>
<path d="M70.7222 19.951C70.7222 20.9446 69.8153 21.4407 68.0055 21.4407H59.6262C57.8524 21.4407 56.9648 20.9446 56.9648 19.951V15.9407H61.3612V19.3469H66.3058V5.14209H70.7222V19.951Z" fill="white"/>
<path d="M127.485 19.951C127.485 20.9446 126.578 21.4407 124.769 21.4407H116.39C114.616 21.4407 113.729 20.9446 113.729 19.951V15.9407H118.126V19.3469H123.07V5.14209H127.486L127.485 19.951Z" fill="white"/>
<path d="M130.959 5.14209H135.375V21.4401H130.959V5.14209Z" fill="white"/>
<path d="M153.703 21.4409H149.326L148.439 18.3475H142.911L142.023 21.4409H137.664V21.3989L143.382 5.12158H148.023L153.703 21.4409ZM147.817 16.2543L145.665 8.9005L143.493 16.2543H147.817Z" fill="white"/>
<path d="M170.501 21.4401H166.632L159.557 11.1822C159.744 11.6823 159.84 12.0744 159.84 12.3585V21.4401H155.537V5.14209H159.405L166.482 15.1912C166.294 14.6917 166.2 14.299 166.2 14.0142V5.14209H170.501V21.4401Z" fill="white"/>
<path d="M85.0574 14.1289H79.0766V21.4401H74.6602V5.14209H79.0766V11.8591H85.0574V5.14209H89.5118V21.4401H85.0574V14.1289Z" fill="white"/>
<path d="M107.861 19.951C107.861 20.9446 106.954 21.4407 105.142 21.4407H95.7646C93.9782 21.4407 93.084 20.9446 93.084 19.951V5.14209H97.4997V19.3469H103.445V5.14209H107.861V19.951Z" fill="white"/>
<path d="M67.4254 34.8596C67.4254 34.8596 67.2446 34.7629 66.8812 34.5689C66.5185 34.3768 66.2377 34.1034 66.0377 33.7494C65.8383 33.3959 65.7383 32.9845 65.7383 32.5184V30.7946C65.7383 30.3279 65.8383 29.9184 66.0377 29.5637C66.2377 29.2089 66.5185 28.9342 66.8812 28.7401C67.2446 28.5461 67.6648 28.4487 68.1429 28.4487C68.539 28.4487 68.9031 28.5214 69.2358 28.6688C69.5685 28.8162 69.8466 29.0235 70.07 29.2929C70.2934 29.5623 70.4448 29.8737 70.5234 30.2278H69.8393C69.7633 29.9918 69.6392 29.7837 69.4665 29.6023C69.2938 29.421 69.0918 29.2803 68.8604 29.1782C68.6296 29.0776 68.3903 29.0269 68.1429 29.0269C67.8008 29.0269 67.5 29.1002 67.24 29.2476C66.9806 29.3943 66.7792 29.601 66.6365 29.8684C66.4945 30.1338 66.4231 30.4425 66.4231 30.7946V32.5184C66.4231 32.8691 66.4945 33.1779 66.6365 33.4446C66.7792 33.7107 66.9806 33.9181 67.24 34.0628C67.5 34.2075 67.8008 34.2815 68.1429 34.2815C68.3903 34.2815 68.6296 34.2335 68.8604 34.1381C69.0918 34.0428 69.2938 33.9047 69.4665 33.724C69.6392 33.542 69.7633 33.3273 69.8393 33.0799H70.5234C70.4448 33.4339 70.2927 33.746 70.0673 34.0141C69.8426 34.2848 69.5639 34.4922 69.2311 34.6396C68.8984 34.7869 68.5356 34.8596 68.1429 34.8596H67.4254Z" fill="white"/>
<path d="M81.7172 28.5146H82.5447L85.0914 34.7948H84.3312L82.1306 29.1661L79.9308 34.7948H79.1699L81.7172 28.5146ZM80.3442 32.691H83.9791V33.2698H80.3442V32.691Z" fill="white"/>
<path d="M91.7168 28.5146H96.5933V29.0928H91.7168V28.5146ZM93.8133 28.768H94.4968V34.7942H93.8133V28.768Z" fill="white"/>
<path d="M105.346 28.5146H106.105V34.7962H105.346V28.5146ZM105.868 28.5146H110.27V29.0928H105.868V28.5146ZM105.868 31.386H109.689V31.9648H105.868V31.386ZM105.868 34.2154H110.27V34.7942H105.868V34.2154Z" fill="white"/>
<path d="M118.33 28.5093H119.21V34.7961H118.33V28.5093ZM118.874 31.5594H121.902C122.231 31.5594 122.521 31.5087 122.772 31.406C123.022 31.304 123.215 31.1593 123.352 30.9725C123.488 30.7852 123.559 30.5691 123.562 30.3237C123.562 30.0797 123.493 29.8643 123.357 29.6762C123.221 29.4882 123.028 29.3441 122.777 29.2415C122.527 29.1401 122.235 29.0888 121.902 29.0888H118.874V28.5093H121.853C122.366 28.5093 122.817 28.5846 123.205 28.7347C123.594 28.884 123.895 29.0954 124.108 29.3715C124.322 29.6462 124.429 29.9643 124.429 30.3237C124.429 30.6838 124.322 31.0025 124.108 31.2766C123.895 31.552 123.593 31.7641 123.202 31.9141C122.811 32.0641 122.361 32.1388 121.853 32.1388H118.874V31.5594ZM121.719 31.9434L122.53 31.7447L124.801 34.7948H123.751L121.719 31.9434Z" fill="white"/>
<path d="M132.717 28.5132H133.596V34.7947H132.717V28.5132Z" fill="white"/>
<path d="M148.291 34.1729L147.931 34.0002V28.5142H148.811V34.791H147.913L142.656 29.0883L143.133 29.3337V34.791H142.254V28.5142H143.139L148.291 34.1729Z" fill="white"/>
<path d="M161.727 31.5848V32.5104C161.727 33.0352 161.634 33.47 161.45 33.8194C161.266 34.1675 160.989 34.4289 160.621 34.6009C160.251 34.7736 159.79 34.8603 159.235 34.8603C158.673 34.8603 158.206 34.7783 157.832 34.6142C157.458 34.4502 157.178 34.2055 156.992 33.8781C156.806 33.5506 156.713 33.1412 156.713 32.6484V30.7946C156.713 30.2705 156.805 29.8351 156.99 29.487C157.174 29.1402 157.45 28.8808 157.819 28.7081C158.189 28.5348 158.65 28.4487 159.205 28.4487C159.664 28.4487 160.061 28.5174 160.394 28.6554C160.727 28.7941 160.999 29.0015 161.213 29.2763C161.424 29.551 161.576 29.8978 161.668 30.3159H160.904C160.819 30.0271 160.701 29.7884 160.549 29.5983C160.398 29.4083 160.209 29.2649 159.986 29.1709C159.762 29.0749 159.502 29.0275 159.205 29.0275C158.806 29.0275 158.475 29.0942 158.212 29.2243C157.947 29.355 157.748 29.551 157.616 29.8117C157.484 30.0731 157.418 30.4005 157.418 30.7953V32.6484C157.418 33.0145 157.484 33.3166 157.618 33.5573C157.752 33.798 157.954 33.9794 158.223 34.0994C158.492 34.2208 158.829 34.2815 159.234 34.2815C159.63 34.2815 159.954 34.2188 160.211 34.0954C160.467 33.9714 160.66 33.78 160.789 33.5213C160.917 33.2626 160.982 32.9298 160.982 32.5231V32.165H159.259V31.5855L161.727 31.5848Z" fill="white"/>
</g>
<defs>
<clipPath id="clip0_6652_22149">
<rect width="170" height="40" fill="white" transform="translate(0.5)"/>
</clipPath>
</defs>
</svg>
