<svg id="Group_3383" data-name="Group 3383" xmlns="http://www.w3.org/2000/svg" xmlns:xlink="http://www.w3.org/1999/xlink" width="34.872" height="32.822" viewBox="0 0 34.872 32.822">
  <defs>
    <clipPath id="clip-path">
      <rect id="Rectangle_2192" data-name="Rectangle 2192" width="34.872" height="32.822" fill="none"/>
    </clipPath>
  </defs>
  <g id="Group_3382" data-name="Group 3382" transform="translate(0 0)" clip-path="url(#clip-path)">
    <path id="Path_4876" data-name="Path 4876" d="M25.631,18.749l-1.849-3.936c1.5-1.172,1.371-2.354.994-3.148a2.452,2.452,0,0,0-3.04-1.215c-.02-.036-.038-.07-.055-.105L20.967,8.83Q19.732,6.213,18.5,3.594a1.879,1.879,0,0,0-3.609,1.029,4.759,4.759,0,0,1-.008,1.115,7.712,7.712,0,0,1-1.7,3.807A16.918,16.918,0,0,1,6.82,14.484c-.533.254-1.069.5-1.6.754-.755.351-1.535.715-2.3,1.087a4.885,4.885,0,0,0-2.9,4.123,5.092,5.092,0,0,0,1.771,4.405,5.17,5.17,0,0,0,4.717.988c.2-.053.252-.03.367.15,1.2,1.889,2.456,3.837,3.728,5.79a2.187,2.187,0,0,0,1.828,1.041A2.132,2.132,0,0,0,14.3,29.694q-.347-.741-.7-1.482l-.592-1.258c-.19-.406-.378-.813-.555-1.194l-.164-.355c.122-.085.244-.165.364-.244a5.025,5.025,0,0,0,.971-.755,1.481,1.481,0,0,0,.157-1.685.485.485,0,0,1,.065-.025,14.457,14.457,0,0,1,6.027-.654,6.423,6.423,0,0,1,4.149,1.864,1.864,1.864,0,0,0,3.034-2.114q-.713-1.524-1.432-3.044M23.4,12.37a.779.779,0,0,1-.3.993l-.691-1.468a.812.812,0,0,1,.992.475M5.65,24.425a3.388,3.388,0,0,1-3.894-2.219A3.479,3.479,0,0,1,3.2,17.936c.713-.413,1.454-.755,2.238-1.118.3-.139.6-.278.9-.424L9.417,22.92c-.364.152-.721.312-1.075.471A17.4,17.4,0,0,1,5.65,24.425m7.244,5.892c.186.4.118.728-.181.888a.611.611,0,0,1-.833-.29q-1.66-2.559-3.31-5.124l-.356-.551a.662.662,0,0,1-.043-.081l1.867-.875a.9.9,0,0,1,.066.109q1.4,2.961,2.789,5.924M12.1,23.7l-.494.232-.157-.332.846-.36c.058.1.119.215.106.261s-.113.108-.3.2m13.5-.8c-.112.081-.267.145-.476-.078a6.656,6.656,0,0,0-2.256-1.568,10.5,10.5,0,0,0-4.3-.833c-.5,0-1.014.025-1.557.075a19.327,19.327,0,0,0-6.081,1.646.737.737,0,0,1-.135.052s.01.053-.052-.079q-1.071-2.3-2.154-4.6l-.835-1.776a20.573,20.573,0,0,0,4.18-2.7,13.074,13.074,0,0,0,4.034-5.337,7.155,7.155,0,0,0,.461-3.293c-.035-.353.01-.465.211-.521s.312.015.475.36l8.453,17.97.045.1c.019.043.038.085.058.128.128.265.031.381-.068.452M23.873,7.893a.741.741,0,0,0,.16-.017.81.81,0,0,0,.576-.526q.88-2.407,1.742-4.82L26.9,1c.016-.044.028-.089.049-.165l.074-.26L26.95.5a1.533,1.533,0,0,1-.112-.128.889.889,0,0,0-.47-.364.991.991,0,0,0-.816.331,1.724,1.724,0,0,0-.278.623c-.023.078-.046.156-.073.23l-.624,1.734q-.676,1.88-1.357,3.759a.866.866,0,0,0,.134.988.728.728,0,0,0,.518.22M26.782,10.6a.792.792,0,0,0,.352.45,1.711,1.711,0,0,1,.134.113l.074.073.1-.031c.077-.024.141-.042.2-.057a1.671,1.671,0,0,0,.278-.093q3-1.408,5.994-2.829c.147-.07.4-.247.43-.467A1.13,1.13,0,0,0,34.186,7c-.216-.3-.553-.338-1-.126L27.824,9.4c-.065.031-.135.058-.2.085a1.478,1.478,0,0,0-.539.306,1.065,1.065,0,0,0-.3.81m7.495,6.219-6.2-2.228a1.6,1.6,0,0,0-.21-.056l-.117-.028-.031,0a.738.738,0,0,0-.743.627.773.773,0,0,0,.589.906q1.369.49,2.737.984,1.729.623,3.459,1.242a1.105,1.105,0,0,0,.364.076.372.372,0,0,0,.226-.064,1.233,1.233,0,0,0,.5-.626c.086-.369-.123-.674-.576-.837" transform="translate(0 0)" fill="#fff"/>
  </g>
</svg>
