<svg width="40" height="40" viewBox="0 0 40 40" fill="none" xmlns="http://www.w3.org/2000/svg">
<path d="M19.7135 39.7131C8.84348 39.7131 0 30.8703 0 20.0003C0 9.13035 8.84348 0.286865 19.7135 0.286865C30.5834 0.286865 39.4269 9.13035 39.4269 20.0003C39.4269 30.8703 30.5834 39.7131 19.7135 39.7131ZM19.7135 1.39247C9.45296 1.39247 1.1056 9.73983 1.1056 20.0003C1.1056 30.2608 9.45296 38.6075 19.7135 38.6075C29.9739 38.6075 38.3213 30.2608 38.3213 20.0003C38.3213 9.73983 29.9739 1.39247 19.7135 1.39247Z" fill="black"/>
<path d="M11.3805 10.4194V6.67847H17.7294V5.37415H11.4365V3.10693L10.0195 3.67374V10.4194H11.3805Z" fill="black"/>
<path d="M20.3936 9.17294V6.73501H29.2371V5.37402H20.4503V1.17899L18.9766 1.12231V9.17294H20.3936Z" fill="black"/>
<path d="M33.0908 33.1516V6.62182L31.6738 5.48755V34.3426L33.0908 33.1516Z" fill="black"/>
<path d="M37.626 25.7256V13.7067L36.1523 10.8167V28.9571L37.626 25.7256Z" fill="black"/>
<path d="M36.2093 16.7689H32.9785L33.0352 15.8047H36.2093V16.7689Z" fill="black"/>
<path d="M36.2093 24.0812H32.9785L33.0352 23.1177H36.2093V24.0812Z" fill="black"/>
<path d="M6.22266 33.1516V6.62182L7.63967 5.48755V34.3426L6.22266 33.1516Z" fill="black"/>
<path d="M1.6875 25.7256V13.7067L3.16119 10.8167V28.9571L1.6875 25.7256Z" fill="black"/>
<path d="M3.10352 16.7689H6.33497L6.27895 15.8047H3.10352V16.7689Z" fill="black"/>
<path d="M3.10352 24.0812H6.33497L6.27895 23.1177H3.10352V24.0812Z" fill="black"/>
<path d="M23.6755 8.94629H25.0806V10.7601H29.3503V15.0118H27.8766V12.1771H25.0806V14.0475H23.6755V12.1764H19.2031V10.7534H23.6755V8.94629Z" fill="black"/>
<path d="M15.7924 10.6981V12.4652H17.3914V13.8962H10.0977V12.5493H14.418V9.35181H17.6995V10.6995H15.7924" fill="black"/>
<path d="M14.446 16.0567V14.9337H15.8203V16.0553H19.0178V13.7561H20.3928V16.0567H23.6756V14.9351H25.0773V16.0567H29.2569V17.3463H25.0813V20.7685H23.6756V17.3463H20.3928V21.1332H19.0191V17.3463H15.823V20.7685H14.4467V17.3463H10.1543V16.0567H14.446Z" fill="black"/>
<path d="M10.125 21.3853L10.041 36.1962L11.5554 36.9537V28.2016H18.6524V21.3853H10.125ZM17.2221 26.9393H11.5554V25.5636H17.2221V26.9393ZM17.2221 24.1899H11.5554V22.7869H17.2221V24.1899Z" fill="black"/>
<path d="M29.3966 36.1962L29.3126 21.3853H20.7852V28.2016H27.8815V36.9537L29.3966 36.1962ZM22.2155 22.7889H27.8815V24.1913H22.2155V22.7889ZM22.2155 25.5656H27.8815V26.9406H22.2155V25.5656Z" fill="black"/>
<path d="M14.5859 36.1683H25.0205V29.436H14.5859V36.1683ZM23.5895 34.878H15.9316V33.587H23.5895V34.878ZM23.5895 32.2127H15.9316V30.9217H23.5895V32.2127Z" fill="black"/>
</svg>
