<svg id="Group_3385" data-name="Group 3385" xmlns="http://www.w3.org/2000/svg" xmlns:xlink="http://www.w3.org/1999/xlink" width="24.587" height="24.588" viewBox="0 0 24.587 24.588">
  <defs>
    <clipPath id="clip-path">
      <rect id="Rectangle_2193" data-name="Rectangle 2193" width="24.587" height="24.588" transform="translate(0 0)" fill="none"/>
    </clipPath>
  </defs>
  <g id="Group_3384" data-name="Group 3384" clip-path="url(#clip-path)">
    <path id="Path_4877" data-name="Path 4877" d="M12.293,0A12.294,12.294,0,1,0,24.587,12.294,12.308,12.308,0,0,0,12.293,0m0,23.141A10.847,10.847,0,1,1,23.141,12.294,10.859,10.859,0,0,1,12.293,23.141m-1.166-4.088h2.351V9.615l-2.351.358ZM12.293,5.536a1.381,1.381,0,0,0-1.372,1.429,1.374,1.374,0,1,0,2.744,0,1.381,1.381,0,0,0-1.372-1.429" fill="#fff"/>
  </g>
</svg>
