<svg width="24" height="24" viewBox="0 0 24 24" fill="none" xmlns="http://www.w3.org/2000/svg">
<path fill-rule="evenodd" clip-rule="evenodd" d="M12 24C18.6274 24 24 18.6274 24 12C24 5.37258 18.6274 0 12 0C5.37258 0 0 5.37258 0 12C0 18.6274 5.37258 24 12 24ZM15.8021 14.625C15.8883 13.7883 15.9375 12.9105 15.9375 12C15.9375 11.0895 15.8924 10.2117 15.8021 9.375H8.19785C8.11172 10.2117 8.0625 11.0895 8.0625 12C8.0625 12.9105 8.10762 13.7883 8.19785 14.625H15.8021ZM22.1678 9.375H17.1187C17.2049 10.2199 17.25 11.0977 17.25 12C17.25 12.9023 17.2049 13.7801 17.1187 14.625H22.1678C22.3852 13.7842 22.5 12.9064 22.5 12C22.5 11.0936 22.3852 10.2158 22.1678 9.375ZM16.9506 8.0625H21.733C20.5066 5.02324 17.8939 2.69355 14.6824 1.84453C15.7283 3.24727 16.5404 5.4416 16.9506 8.0625ZM9.48574 4.17832C9.01406 5.24883 8.62852 6.56953 8.37832 8.0625H15.6217C15.3756 6.56543 14.99 5.24473 14.5143 4.17832C14.0836 3.21035 13.6037 2.50898 13.1402 2.06602C12.6809 1.63125 12.2994 1.5 12 1.5C11.7006 1.5 11.3191 1.63125 10.8598 2.06602C10.3963 2.50898 9.91641 3.21035 9.48574 4.17832ZM2.26289 8.0625H7.04941C7.45957 5.4416 8.27168 3.24727 9.31758 1.84453C6.10195 2.69355 3.49336 5.02324 2.26289 8.0625ZM6.88125 9.375H1.83223C1.61484 10.2158 1.5 11.0936 1.5 12C1.5 12.9064 1.61484 13.7842 1.83223 14.625H6.88125C6.79512 13.7801 6.75 12.9023 6.75 12C6.75 11.0977 6.79512 10.2199 6.88125 9.375ZM8.37832 15.9375C8.62852 17.4305 9.00996 18.7512 9.48574 19.8176V19.8217C9.91641 20.7896 10.3963 21.491 10.8598 21.934C11.3191 22.3687 11.7006 22.5 12 22.5C12.2994 22.5 12.6809 22.3687 13.1402 21.9299C13.6037 21.4869 14.0836 20.7855 14.5143 19.8176C14.9859 18.7512 15.3715 17.4305 15.6217 15.9375H8.37832ZM9.31758 22.1555C8.27168 20.7527 7.45957 18.5584 7.04941 15.9375H2.26289C3.49336 18.9768 6.10195 21.3064 9.31758 22.1555ZM14.6865 22.1555C17.898 21.3064 20.5066 18.9768 21.7371 15.9375H16.9547C16.5404 18.5584 15.7324 20.7527 14.6865 22.1555Z" fill="white"/>
</svg>
