<svg width="22" height="28" viewBox="0 0 22 28" fill="none" xmlns="http://www.w3.org/2000/svg">
<path d="M6.6566 1.70121L6.65631 1.70146L5.25028 2.90562L3.84514 1.70222C3.84496 1.70207 3.84478 1.70191 3.8446 1.70176C3.28933 1.22507 2.50776 1.11591 1.84353 1.42067C1.18027 1.72499 0.749997 2.38867 0.749997 3.12429V24.8757C0.749997 25.6113 1.18027 26.275 1.84353 26.5793C2.50778 26.8841 3.28939 26.7749 3.84465 26.2982C3.84482 26.2981 3.84498 26.2979 3.84514 26.2978L5.25028 25.0944L6.65346 26.2961C6.654 26.2966 6.65455 26.297 6.65509 26.2975C7.35559 26.9021 8.39388 26.8981 9.09435 26.2988L9.09464 26.2985L10.5007 25.0944L11.9067 26.2985L11.907 26.2988C12.6096 26.8999 13.6421 26.8999 14.3447 26.2988L14.345 26.2985L15.7511 25.0944L17.1562 26.2978C17.1564 26.2979 17.1565 26.2981 17.1567 26.2982C17.7119 26.7749 18.4936 26.8841 19.1578 26.5793C19.8211 26.275 20.2513 25.6113 20.2513 24.8757V3.12429C20.2513 2.38867 19.8211 1.72499 19.1578 1.42067C18.4936 1.1159 17.712 1.22508 17.1567 1.70178C17.1565 1.70193 17.1564 1.70208 17.1562 1.70222L15.7511 2.90562L14.345 1.70146L14.3447 1.70121C13.6421 1.10011 12.6096 1.10011 11.907 1.70121L11.9067 1.70146L10.5007 2.90562L9.09749 1.70391C9.09697 1.70346 9.09645 1.70301 9.09592 1.70256C8.39542 1.09786 7.35709 1.1019 6.6566 1.70121ZM6.00028 9.4997L6.00033 9.49966H15.001L15.0011 9.4997L15.001 9.49975H6.00033L6.00028 9.4997ZM6.00033 18.5003L6.00028 18.5003L6.00033 18.5002H15.001L15.0011 18.5003L15.001 18.5003H6.00033ZM6.00028 14L6.00033 14H15.001L15.0011 14L15.001 14H6.00033L6.00028 14Z" stroke="white" stroke-width="1.50001"/>
</svg>
