<svg width="364" height="16" viewBox="0 0 364 16" fill="none" xmlns="http://www.w3.org/2000/svg">
<g clip-path="url(#clip0_6641_29962)">
<path d="M-2.26274 -13.7373C-1.01306 -14.9869 1.01306 -14.9869 2.26274 -13.7373L13.7373 -2.26274C14.9869 -1.01306 14.9869 1.01306 13.7373 2.26274L2.26274 13.7373C1.01306 14.9869 -1.01306 14.9869 -2.26274 13.7373L-13.7373 2.26274C-14.9869 1.01306 -14.9869 -1.01306 -13.7373 -2.26274L-2.26274 -13.7373Z" fill="white"/>
<path d="M23.7373 -13.7373C24.9869 -14.9869 27.0131 -14.9869 28.2627 -13.7373L39.7373 -2.26274C40.9869 -1.01306 40.9869 1.01306 39.7373 2.26274L28.2627 13.7373C27.0131 14.9869 24.9869 14.9869 23.7373 13.7373L12.2627 2.26274C11.0131 1.01306 11.0131 -1.01306 12.2627 -2.26274L23.7373 -13.7373Z" fill="white"/>
<path d="M49.7373 -13.7373C50.9869 -14.9869 53.0131 -14.9869 54.2627 -13.7373L65.7373 -2.26274C66.9869 -1.01306 66.9869 1.01306 65.7373 2.26274L54.2627 13.7373C53.0131 14.9869 50.9869 14.9869 49.7373 13.7373L38.2627 2.26274C37.0131 1.01306 37.0131 -1.01306 38.2627 -2.26274L49.7373 -13.7373Z" fill="white"/>
<path d="M75.7373 -13.7373C76.9869 -14.9869 79.0131 -14.9869 80.2627 -13.7373L91.7373 -2.26274C92.9869 -1.01306 92.9869 1.01306 91.7373 2.26274L80.2627 13.7373C79.0131 14.9869 76.9869 14.9869 75.7373 13.7373L64.2627 2.26274C63.0131 1.01306 63.0131 -1.01306 64.2627 -2.26274L75.7373 -13.7373Z" fill="white"/>
<path d="M101.737 -13.7373C102.987 -14.9869 105.013 -14.9869 106.263 -13.7373L117.737 -2.26274C118.987 -1.01306 118.987 1.01306 117.737 2.26274L106.263 13.7373C105.013 14.9869 102.987 14.9869 101.737 13.7373L90.2627 2.26274C89.0131 1.01306 89.0131 -1.01306 90.2627 -2.26274L101.737 -13.7373Z" fill="white"/>
<path d="M127.737 -13.7373C128.987 -14.9869 131.013 -14.9869 132.263 -13.7373L143.737 -2.26274C144.987 -1.01306 144.987 1.01306 143.737 2.26274L132.263 13.7373C131.013 14.9869 128.987 14.9869 127.737 13.7373L116.263 2.26274C115.013 1.01306 115.013 -1.01306 116.263 -2.26274L127.737 -13.7373Z" fill="white"/>
<path d="M153.737 -13.7373C154.987 -14.9869 157.013 -14.9869 158.263 -13.7373L169.737 -2.26274C170.987 -1.01306 170.987 1.01306 169.737 2.26274L158.263 13.7373C157.013 14.9869 154.987 14.9869 153.737 13.7373L142.263 2.26274C141.013 1.01306 141.013 -1.01306 142.263 -2.26274L153.737 -13.7373Z" fill="white"/>
<path d="M179.737 -13.7373C180.987 -14.9869 183.013 -14.9869 184.263 -13.7373L195.737 -2.26274C196.987 -1.01306 196.987 1.01306 195.737 2.26274L184.263 13.7373C183.013 14.9869 180.987 14.9869 179.737 13.7373L168.263 2.26274C167.013 1.01306 167.013 -1.01306 168.263 -2.26274L179.737 -13.7373Z" fill="white"/>
<path d="M205.737 -13.7373C206.987 -14.9869 209.013 -14.9869 210.263 -13.7373L221.737 -2.26274C222.987 -1.01306 222.987 1.01306 221.737 2.26274L210.263 13.7373C209.013 14.9869 206.987 14.9869 205.737 13.7373L194.263 2.26274C193.013 1.01306 193.013 -1.01306 194.263 -2.26274L205.737 -13.7373Z" fill="white"/>
<path d="M231.737 -13.7373C232.987 -14.9869 235.013 -14.9869 236.263 -13.7373L247.737 -2.26274C248.987 -1.01306 248.987 1.01306 247.737 2.26274L236.263 13.7373C235.013 14.9869 232.987 14.9869 231.737 13.7373L220.263 2.26274C219.013 1.01306 219.013 -1.01306 220.263 -2.26274L231.737 -13.7373Z" fill="white"/>
<path d="M257.737 -13.7373C258.987 -14.9869 261.013 -14.9869 262.263 -13.7373L273.737 -2.26274C274.987 -1.01306 274.987 1.01306 273.737 2.26274L262.263 13.7373C261.013 14.9869 258.987 14.9869 257.737 13.7373L246.263 2.26274C245.013 1.01306 245.013 -1.01306 246.263 -2.26274L257.737 -13.7373Z" fill="white"/>
<path d="M283.737 -13.7373C284.987 -14.9869 287.013 -14.9869 288.263 -13.7373L299.737 -2.26274C300.987 -1.01306 300.987 1.01306 299.737 2.26274L288.263 13.7373C287.013 14.9869 284.987 14.9869 283.737 13.7373L272.263 2.26274C271.013 1.01306 271.013 -1.01306 272.263 -2.26274L283.737 -13.7373Z" fill="white"/>
<path d="M309.737 -13.7373C310.987 -14.9869 313.013 -14.9869 314.263 -13.7373L325.737 -2.26274C326.987 -1.01306 326.987 1.01306 325.737 2.26274L314.263 13.7373C313.013 14.9869 310.987 14.9869 309.737 13.7373L298.263 2.26274C297.013 1.01306 297.013 -1.01306 298.263 -2.26274L309.737 -13.7373Z" fill="white"/>
<path d="M335.737 -13.7373C336.987 -14.9869 339.013 -14.9869 340.263 -13.7373L351.737 -2.26274C352.987 -1.01306 352.987 1.01306 351.737 2.26274L340.263 13.7373C339.013 14.9869 336.987 14.9869 335.737 13.7373L324.263 2.26274C323.013 1.01306 323.013 -1.01306 324.263 -2.26274L335.737 -13.7373Z" fill="white"/>
<path d="M361.737 -13.7373C362.987 -14.9869 365.013 -14.9869 366.263 -13.7373L377.737 -2.26274C378.987 -1.01306 378.987 1.01306 377.737 2.26274L366.263 13.7373C365.013 14.9869 362.987 14.9869 361.737 13.7373L350.263 2.26274C349.013 1.01306 349.013 -1.01306 350.263 -2.26274L361.737 -13.7373Z" fill="white"/>
</g>
<defs>
<clipPath id="clip0_6641_29962">
<rect width="364" height="16" fill="white"/>
</clipPath>
</defs>
</svg>
