<svg width="22" height="22" viewBox="0 0 22 22" fill="none" xmlns="http://www.w3.org/2000/svg">
<path d="M10.6102 21.94C16.47 21.94 21.2202 17.1897 21.2202 11.33C21.2202 5.47023 16.47 0.719971 10.6102 0.719971C4.7505 0.719971 0.000244141 5.47023 0.000244141 11.33C0.000244141 17.1897 4.7505 21.94 10.6102 21.94Z" fill="#274B7E"/>
<path d="M17.0001 16.1999C17.0001 16.6812 16.8023 17.1347 16.4392 17.4742C16.0791 17.8136 15.6009 18 15.0902 18C14.5796 18 14.1014 17.8136 13.7412 17.4742L10.8779 14.7753C11.0137 14.7197 11.1495 14.6557 11.2794 14.5861C11.4034 14.5194 11.5214 14.447 11.6395 14.3719L14.3346 16.9149C14.739 17.2933 15.4415 17.2933 15.8459 16.9149C16.0496 16.7229 16.1588 16.4697 16.1588 16.1999C16.1588 15.93 16.0496 15.6796 15.8459 15.4876L13.1538 12.9446C13.1538 12.9446 13.1361 12.9279 13.1302 12.9195L13.0948 12.8862C13.1686 12.7665 13.2365 12.6441 13.2955 12.5189C13.3604 12.3881 13.4195 12.2574 13.4697 12.121L13.7471 12.3826C13.7471 12.3826 13.7649 12.402 13.7737 12.4104L16.4392 14.9284C16.8023 15.2678 17.0001 15.7213 17.0001 16.1999Z" fill="white"/>
<path d="M8.87377 6C6.18167 6 4.00024 8.05611 4.00024 10.5908C4.00024 13.1254 6.18167 15.1843 8.87377 15.1843C9.58812 15.1843 10.267 15.0396 10.8781 14.7753C11.0139 14.7197 11.1497 14.6557 11.2795 14.5861C11.4035 14.5194 11.5216 14.447 11.6397 14.3719C12.233 13.9852 12.7319 13.4788 13.0949 12.8862C13.1687 12.7665 13.2366 12.6441 13.2957 12.5189C13.3606 12.3881 13.4196 12.2574 13.4698 12.121C13.6499 11.6425 13.7473 11.1278 13.7473 10.5908C13.7473 8.05611 11.5629 6 8.87377 6ZM12.4632 11.1778C12.4367 11.3309 12.3953 11.4811 12.3481 11.6258C12.3009 11.7649 12.2477 11.8984 12.1828 12.0264C11.8758 12.6524 11.374 13.1783 10.7512 13.5344C10.6272 13.6068 10.4943 13.6708 10.3615 13.7264C10.2228 13.7876 10.0781 13.8377 9.92758 13.8794C9.59402 13.9768 9.2398 14.0269 8.87377 14.0269C6.86355 14.0269 5.22822 12.4855 5.22822 10.5908C5.22822 8.69603 6.86355 7.15743 8.87377 7.15743C10.884 7.15743 12.5164 8.69882 12.5164 10.5908C12.5164 10.7911 12.4987 10.9859 12.4632 11.1778Z" fill="white"/>
</svg>
