<svg width="31" height="17" viewBox="0 0 31 17" fill="none" xmlns="http://www.w3.org/2000/svg">
<path d="M10.9 4.44C10.9 6.89 12.89 8.88 15.33 8.88C17.77 8.88 19.77 6.89 19.77 4.44C19.77 1.99 17.78 0 15.33 0C12.88 0 10.9 1.99 10.9 4.44Z" fill="#173A6F"/>
<path d="M19.5999 9.50999C18.4199 10.42 16.9499 10.96 15.3399 10.96C13.7299 10.96 12.2499 10.42 11.0699 9.50999C9.25994 10.11 7.93994 11.82 7.93994 13.84V16.06H22.7199V13.84C22.7199 11.82 21.4099 10.11 19.5899 9.50999H19.5999Z" fill="#173A6F"/>
<path d="M22.05 7.65C22.05 9.42 23.49 10.86 25.26 10.86C27.03 10.86 28.47 9.42 28.47 7.65C28.47 5.88 27.03 4.44 25.26 4.44C23.49 4.44 22.05 5.88 22.05 7.65Z" fill="#173A6F"/>
<path d="M28.3399 11.32C27.4899 11.98 26.4199 12.36 25.2599 12.36C24.4699 12.36 23.7399 12.19 23.0699 11.86C23.3199 12.47 23.4499 13.14 23.4499 13.84V16.06H30.6099V14.45C30.6099 12.98 29.6599 11.75 28.3399 11.32Z" fill="#173A6F"/>
<path d="M2.14001 7.65C2.14001 9.42 3.58001 10.86 5.35001 10.86C7.12001 10.86 8.56001 9.42 8.56001 7.65C8.56001 5.88 7.12001 4.44 5.35001 4.44C3.58001 4.44 2.14001 5.88 2.14001 7.65Z" fill="#173A6F"/>
<path d="M5.35 12.36C4.19 12.36 3.12 11.97 2.26 11.32C0.95 11.75 0 12.99 0 14.45V16.06H7.21V13.84C7.21 13.14 7.35 12.46 7.6 11.84C6.92 12.18 6.16 12.36 5.35 12.36Z" fill="#173A6F"/>
</svg>
