<svg width="28" height="23" viewBox="0 0 28 23" fill="none" xmlns="http://www.w3.org/2000/svg">
<g clip-path="url(#clip0_258_431)">
<path d="M27.4757 8.74925C27.4757 11.1953 25.5101 13.161 23.064 13.161C21.0634 13.161 19.3686 11.8331 18.827 9.9985C18.7745 9.81505 18.5212 9.81505 18.4688 9.9985C17.9272 11.8331 16.2324 13.161 14.2318 13.161C12.2312 13.161 10.5364 11.8331 9.99481 9.9985C9.94239 9.81505 9.68905 9.81505 9.63663 9.9985C9.09499 11.8331 7.4002 13.161 5.39964 13.161C2.97102 13.161 0.65596 11.1691 1.0054 8.74925C1.32864 6.53029 3.55633 0.773224 3.55633 0.773224H24.9335L27.4844 8.74925H27.4757Z" fill="#173A6F"/>
<path d="M26.8378 13.2745V22.5697H16.6078V17.1621H11.838V22.5697H1.60803V13.3794C2.58647 14.384 3.98424 14.9781 5.41695 14.9781C7.30394 14.9781 8.96379 13.9385 9.82866 12.3922C10.6935 13.9385 12.3534 14.9781 14.2404 14.9781C16.1274 14.9781 17.7872 13.9385 18.6521 12.3922C19.517 13.9385 21.1768 14.9781 23.0638 14.9781C24.5664 14.9781 25.9205 14.3229 26.829 13.2833L26.8378 13.2745Z" fill="#173A6F"/>
</g>
<defs>
<clipPath id="clip0_258_431">
<rect width="26.5052" height="21.7965" fill="white" transform="translate(0.970276 0.773224)"/>
</clipPath>
</defs>
</svg>
