<svg width="26" height="35" viewBox="0 0 26 35" fill="none" xmlns="http://www.w3.org/2000/svg">
<path d="M20.0802 12.6827H20.0609C20.0609 12.6827 20.0609 12.6635 20.0417 12.6538C19.7049 12.394 19.3584 12.1342 18.9639 11.884C18.7329 11.7397 18.4539 11.7108 18.2037 11.7589C17.2991 9.39164 16.1444 7.12061 14.8452 5.14789C13.5269 3.12705 12.0738 1.4334 10.563 0.230525C10.2069 -0.0581658 9.71617 -0.0774118 9.33125 0.18241C8.95595 0.442231 8.80198 0.913759 8.93671 1.3468C9.44673 2.97309 9.65843 4.32031 9.65843 5.47507C9.65843 6.89928 9.34087 8.02517 8.83085 9.03559C8.32083 10.0556 7.59911 10.9794 6.77153 11.9033C5.25109 13.6065 3.32649 15.3194 2.02738 17.8214C1.19017 19.4477 0.641663 21.3916 0.641663 23.7877C0.641663 23.9994 0.660909 24.2015 0.670532 24.3747V24.4613C0.670532 24.4613 0.699401 24.5575 0.709024 24.596C0.709024 24.6826 0.709024 24.7596 0.709024 24.8462C1.16131 27.7235 2.69137 30.2351 4.8373 32.0346C6.98323 33.8341 9.76429 34.9215 12.7474 34.9215C19.5509 34.9215 25.0745 29.3979 25.0745 22.5944C25.0745 18.5335 23.0922 14.9153 20.0609 12.6731L20.0802 12.6827ZM20.0321 29.8598C18.1652 31.7074 15.6055 32.8622 12.7667 32.8622C10.2839 32.8622 7.96478 31.948 6.1749 30.4564C4.86617 29.3498 3.83651 27.9352 3.2495 26.3378C3.27837 26.1549 3.2495 25.9625 3.18214 25.7797C2.98006 25.2696 2.82609 24.7307 2.73948 24.1726C2.73948 24.0379 2.73948 23.9128 2.73948 23.7877C2.73948 21.6995 3.19176 20.1213 3.88462 18.7645C4.9624 16.6666 6.69454 15.0788 8.33046 13.2793C9.21578 12.2978 10.0722 11.2296 10.7073 9.9594C11.3425 8.68916 11.7466 7.20722 11.7466 5.46545C11.7466 5.07091 11.7178 4.67636 11.6793 4.25295C12.17 4.86882 12.6608 5.54243 13.142 6.26416C14.3737 8.14065 15.4804 10.3251 16.3272 12.6057C17.1163 14.7036 17.684 16.8687 17.9246 18.9281C17.9823 19.4092 18.3576 19.7941 18.8484 19.8422C19.3296 19.8904 19.7819 19.6017 19.9358 19.1494C20.2438 18.1967 20.3881 17.2633 20.3881 16.3587C20.3881 16.1374 20.3689 15.9161 20.3592 15.6851C22.0144 17.5038 23.0344 19.9385 23.0344 22.5944C23.0344 25.4332 21.8797 27.9833 20.0321 29.8598Z" fill="#173A6F"/>
<path d="M17.4146 29.3113C17.3472 29.446 17.2799 29.5615 17.2125 29.6962C17.174 29.754 17.1355 29.8117 17.1067 29.8598L17.0393 29.956C16.9623 30.0811 16.8853 30.2062 16.7987 30.3313H16.7602C15.7691 31.5535 14.2486 32.3329 12.5454 32.3329C9.85091 32.3329 7.61837 30.3602 7.19496 27.7909C7.14684 27.6754 7.09873 27.5695 7.06023 27.4541C6.1268 22.0074 10.409 17.3499 11.8429 14.232C12.0065 13.6546 12.1604 13.0388 12.2855 12.3844C15.7691 17.5905 20.4266 23.5567 17.3954 29.3209L17.4146 29.3113Z" fill="#173A6F"/>
</svg>
