<svg width="30" height="41" viewBox="0 0 30 41" fill="none" xmlns="http://www.w3.org/2000/svg">
<path d="M14.44 29.6699C13.96 30.8999 11.07 36.0399 9.57998 38.0799C7.68998 40.6699 4.95998 39.6299 5.46998 37.0799C6.54998 31.6399 9.93998 17.3199 9.93998 17.3199C9.93998 17.3199 5.51998 19.0699 3.63998 20.1199C1.75998 21.1699 -0.440019 18.8999 2.25998 16.9799C4.11998 15.6499 7.88998 13.2599 9.82998 11.8799C12.71 9.83994 16.61 9.97994 19.37 11.8799C21.33 13.2299 25.09 15.6499 26.94 16.9799C29.64 18.9099 27.45 21.1799 25.56 20.1199C23.67 19.0599 19.26 17.3199 19.26 17.3199C19.26 17.3199 22.8 32.5799 23.73 37.0799C24.26 39.6299 21.51 40.6699 19.62 38.0799C18.13 36.0399 14.43 29.6699 14.43 29.6699H14.44Z" stroke="#173A6F" stroke-width="2" stroke-linecap="round" stroke-linejoin="round"/>
<path d="M14.49 8.8C15.66 8.8 16.77 8.34 17.6 7.51C18.43 6.68 18.89 5.57 18.89 4.4C18.89 3.23 18.43 2.12 17.6 1.29C16.77 0.46 15.66 0 14.49 0C13.32 0 12.21 0.46 11.38 1.29C10.55 2.12 10.09 3.23 10.09 4.4C10.09 5.57 10.55 6.68 11.38 7.51C12.21 8.34 13.32 8.8 14.49 8.8ZM14.49 1.8C15.92 1.8 17.09 2.97 17.09 4.4C17.09 5.83 15.92 7 14.49 7C13.06 7 11.89 5.83 11.89 4.4C11.89 2.97 13.06 1.8 14.49 1.8Z" fill="#173A6F"/>
<path d="M20.15 14.88C20.84 14.88 21.54 15.14 22.07 15.67C23.13 16.73 23.13 18.44 22.07 19.5L20.49 21.08L18.23 23.33C18.06 23.5 17.83 23.59 17.6 23.59C17.37 23.59 17.14 23.5 16.97 23.33L13.13 19.5C12.07 18.44 12.07 16.73 13.13 15.67C13.66 15.14 14.35 14.88 15.05 14.88C15.75 14.88 16.44 15.14 16.97 15.67L17.29 15.99C17.38 16.08 17.49 16.12 17.6 16.12C17.71 16.12 17.83 16.08 17.91 15.99L18.23 15.67C18.76 15.14 19.45 14.88 20.15 14.88Z" fill="#173A6F"/>
</svg>
