<svg width="39" height="35" viewBox="0 0 39 35" fill="none" xmlns="http://www.w3.org/2000/svg">
<path d="M13.12 14.4902C12.53 14.8602 12.18 15.3402 12.19 16.0502C12.19 16.5302 12.19 17.0102 12.19 17.4902C12.19 18.5702 11.33 19.4102 10.24 19.3902C9.26003 19.3702 8.44003 18.5502 8.43003 17.5702C8.43003 16.9102 8.41003 16.2502 8.43003 15.6002C8.48003 14.4302 8.86003 13.3602 9.55003 12.4102C9.98003 11.8202 10.53 11.3602 11.1 10.9102C11.97 10.2102 12.84 9.5102 13.71 8.8102C14.2 8.4202 14.76 8.2302 15.39 8.2202C15.8 8.2202 16.21 8.2002 16.62 8.3002C17.77 8.5902 18.67 9.6702 18.71 10.8502C18.71 10.9402 18.71 11.0302 18.71 11.1202C18.71 14.1102 18.71 17.1002 18.71 20.0902C18.71 20.9502 18.95 21.7102 19.47 22.3902C20.17 23.3102 20.88 24.2202 21.52 25.1702C22.34 26.3802 22.98 27.6802 23.49 29.0502C23.84 29.9902 24.21 30.9302 24.56 31.8702C24.99 33.0002 24.43 34.2402 23.31 34.6602C22.19 35.0802 20.96 34.5102 20.53 33.3802C20.04 32.1102 19.56 30.8302 19.05 29.5702C18.46 28.1202 17.63 26.8002 16.68 25.5602C15.75 24.3502 14.83 23.1202 13.91 21.8902C13.35 21.1402 13.09 20.2902 13.09 19.3702C13.09 17.8202 13.09 16.2602 13.09 14.7102C13.09 14.6402 13.09 14.5702 13.09 14.4802L13.12 14.4902Z" fill="#173A6F"/>
<path d="M6.63 32.3902C6.63 32.0202 6.83 31.5302 7.21 31.1102C7.92 30.3102 8.64 29.5102 9.33 28.7002C10.17 27.7102 10.8 26.6002 11.27 25.3902C11.62 24.5002 11.98 23.6302 12.34 22.7402C12.45 22.4602 12.7 22.3402 12.95 22.4402C13.2 22.5402 13.3 22.8002 13.18 23.0902C12.67 24.3102 12.23 25.5502 11.66 26.7502C11.13 27.8602 10.43 28.8602 9.61001 29.7802C9.02001 30.4402 8.43001 31.1002 7.85001 31.7702C7.39001 32.3002 7.45 33.1202 7.98 33.5802C8.53 34.0602 9.34001 34.0202 9.81001 33.4802C10.63 32.5402 11.44 31.5802 12.26 30.6402C12.8 30.0202 13.32 29.3702 13.75 28.6702C14.23 27.8902 14.6 27.0602 14.9 26.2002C14.94 26.0902 14.97 25.9902 15.02 25.8802C15.11 25.6602 15.36 25.5602 15.58 25.6302C15.8 25.7002 15.94 25.9302 15.87 26.1502C15.7 26.6802 15.5 27.1902 15.28 27.7002C14.71 28.9802 13.92 30.1302 13 31.1802C12.2 32.0902 11.4 33.0102 10.62 33.9402C9.88 34.8302 8.77 35.0102 7.9 34.6002C7.12 34.2302 6.64001 33.4602 6.64001 32.3902H6.63Z" fill="#173A6F"/>
<path d="M16.16 7.33018C14.13 7.33018 12.49 5.68018 12.5 3.66018C12.51 1.62018 14.16 -0.019819 16.2 0.000180999C18.3 0.020181 19.9 1.76018 19.83 3.80018C19.76 5.77018 18.12 7.36018 16.16 7.33018Z" fill="#173A6F"/>
<path d="M25.7 17.4102C25.7 18.6102 24.56 19.5002 23.41 19.1702C22.81 19.0002 22.22 18.7802 21.64 18.5402C21.09 18.3102 20.64 17.9302 20.2 17.5402C20.09 17.4502 19.99 17.3602 19.88 17.2702C19.67 17.0902 19.63 16.8102 19.8 16.6102C19.97 16.4102 20.25 16.3902 20.46 16.5702C20.72 16.8002 20.99 17.0202 21.25 17.2402C21.65 17.5802 22.12 17.7702 22.61 17.9302C22.93 18.0402 23.25 18.1602 23.56 18.2702C24.05 18.4402 24.56 18.2102 24.74 17.7402C24.92 17.2602 24.7 16.7502 24.2 16.5602C23.85 16.4302 23.49 16.3302 23.14 16.1902C22.39 15.8902 21.77 15.4102 21.29 14.7502C20.88 14.1902 20.46 13.6302 20.05 13.0802C19.9 12.8802 19.91 12.6602 20.06 12.4902C20.19 12.3402 20.42 12.3002 20.61 12.3902C20.68 12.4302 20.74 12.4902 20.78 12.5502C21.16 13.0602 21.55 13.5702 21.91 14.0902C22.42 14.8102 23.1 15.2702 23.94 15.5202C24.29 15.6302 24.65 15.7202 24.96 15.9502C25.43 16.3002 25.7 16.8302 25.7 17.4202V17.4102Z" fill="#173A6F"/>
<path d="M37.8 28.5902H24.41C24.11 28.5902 23.86 28.3502 23.86 28.0402C23.86 27.7302 24.1 27.4902 24.41 27.4902H37.8C38.1 27.4902 38.35 27.7302 38.35 28.0402C38.35 28.3502 38.11 28.5902 37.8 28.5902Z" fill="#173A6F"/>
<path d="M8.00001 28.5902H1.31001C1.01001 28.5902 0.76001 28.3502 0.76001 28.0402C0.76001 27.7302 1.00001 27.4902 1.31001 27.4902H8.00001C8.30001 27.4902 8.55001 27.7302 8.55001 28.0402C8.55001 28.3502 8.31001 28.5902 8.00001 28.5902Z" fill="#173A6F"/>
</svg>
