<svg width="21" height="18" viewBox="0 0 21 18" fill="none" xmlns="http://www.w3.org/2000/svg">
<path d="M4.29918 4.94672C5.61914 4.94672 6.68918 3.87668 6.68918 2.55672C6.68918 1.23676 5.61914 0.166718 4.29918 0.166718C2.97922 0.166718 1.90918 1.23676 1.90918 2.55672C1.90918 3.87668 2.97922 4.94672 4.29918 4.94672Z" fill="#173A6F"/>
<path d="M6.98918 5.95671H1.60918C0.419177 5.95671 -0.360823 7.57671 0.169177 8.95671L3.20918 16.7967C3.61918 17.8567 4.97918 17.8567 5.38918 16.7967L8.42918 8.95671C8.95918 7.57671 8.18918 5.95671 6.98918 5.95671Z" fill="#173A6F"/>
<path d="M16.0484 4.93758C17.3651 4.84389 18.3565 3.70061 18.2628 2.38398C18.1691 1.06734 17.0258 0.0759488 15.7092 0.169633C14.3925 0.263318 13.4011 1.4066 13.4948 2.72324C13.5885 4.03987 14.7318 5.03126 16.0484 4.93758Z" fill="#173A6F"/>
<path d="M12.4992 17.5867H19.2592C20.4492 17.5867 21.2292 16.1067 20.6992 14.8467L17.1292 6.56672C16.9692 6.09672 16.5292 5.77672 16.0292 5.77672H15.7792C15.2892 5.77672 14.8492 6.08672 14.6792 6.55672L11.0592 14.8467C10.5292 16.1067 11.2992 17.5867 12.4992 17.5867Z" fill="#173A6F"/>
</svg>
