<svg width="29" height="29" viewBox="0 0 29 29" fill="none" xmlns="http://www.w3.org/2000/svg">
<path d="M14.3361 3.89044C8.63718 3.89044 4.01648 8.51626 4.01648 14.2214C4.01648 19.9266 8.63718 24.5525 14.3361 24.5525C20.0349 24.5525 24.6556 19.9266 24.6556 14.2214C24.6556 8.51626 20.0349 3.89044 14.3361 3.89044ZM18.4473 19.8317C17.7127 20.318 16.836 20.6383 15.8407 20.7806V21.943C15.8407 22.3226 15.5327 22.631 15.1536 22.631H13.9095C13.5304 22.631 13.2223 22.3226 13.2223 21.943V20.7806C12.0968 20.6027 11.0779 20.1757 10.1774 19.4759C9.60872 19.0489 9.17034 18.61 8.8386 18.1475C8.74382 18.0407 8.68458 17.9221 8.68458 17.7798C8.68458 17.5781 8.79121 17.4121 9.00447 17.2816L10.2841 16.5344C10.2841 16.5344 10.5329 16.4157 10.6632 16.4157C10.8883 16.4157 11.0779 16.5106 11.2082 16.6886C11.848 17.3765 12.5115 17.8391 13.2223 18.0882V15.1466C11.5873 14.8975 10.3907 14.2808 9.66796 13.2963C9.22958 12.727 9.00447 12.0627 8.99262 11.3155C8.96893 9.7854 9.78644 8.63488 11.4688 7.87577C11.9902 7.63854 12.5707 7.47249 13.2223 7.3776V6.08474C13.2223 5.70519 13.5304 5.40866 13.9095 5.40866H15.1536C15.5327 5.40866 15.8407 5.70519 15.8407 6.08474V7.41318C17.2151 7.65041 18.3407 8.26718 19.2174 9.26351C19.3359 9.38212 19.407 9.5126 19.3951 9.66679C19.3951 9.85657 19.3003 10.0108 19.1108 10.1294L17.7009 11.0071C17.7009 11.0071 17.4521 11.1376 17.2743 11.1376C17.0492 11.1376 16.8597 11.0664 16.6938 10.9241C16.4213 10.6868 16.1369 10.4971 15.8407 10.3666V12.7151C17.5113 12.9523 18.7435 13.5454 19.5373 14.4824C20.0231 15.0754 20.26 15.799 20.2482 16.6411C20.2126 18.0051 19.6202 19.0608 18.4473 19.8317ZM15.8407 15.4669V18.0526C15.9355 18.0051 16.0303 17.9577 16.1132 17.9102C16.599 17.6137 16.8478 17.1867 16.8478 16.653C16.8597 16.0718 16.5161 15.6804 15.8407 15.4669ZM12.393 11.3155C12.4048 11.8255 12.6773 12.1813 13.2223 12.383V10.2954L13.1276 10.331C12.6418 10.5682 12.393 10.9003 12.393 11.3155Z" fill="#173A6F"/>
<path d="M14.2176 0C6.3742 0 0 6.38126 0 14.2214C0 22.0616 6.3742 28.4547 14.2176 28.4547C22.0609 28.4547 28.4233 22.0735 28.4233 14.2214C28.4233 6.3694 22.0491 0 14.2176 0ZM14.3716 25.6911C8.04477 25.6911 2.9146 20.5553 2.9146 14.2214C2.9146 7.88762 8.04477 2.75177 14.3716 2.75177C20.6984 2.75177 25.8167 7.88762 25.8167 14.2214C25.8167 20.5553 20.6865 25.6911 14.3716 25.6911Z" fill="#173A6F"/>
</svg>
