<svg width="27" height="28" viewBox="0 0 27 28" fill="none" xmlns="http://www.w3.org/2000/svg">
<path d="M12.39 0C5.63 0 0.14 4.27 0.14 9.53C0.14 11.42 0.85 13.23 2.19 14.8H2.18L2.31 14.95C2.16 15.25 1.27 16.11 0.47 16.78L0 17.16L6.81 18.01C7.8 18.4 8.83 18.69 9.89 18.86C10.25 15.4 13.93 12.67 18.4 12.67C20.21 12.67 21.9 13.12 23.28 13.88C24.15 12.58 24.64 11.1 24.64 9.53C24.64 4.27 19.14 0 12.39 0ZM12.69 12.6H4.23V11.73H12.69V12.6ZM20.2 9.39H4.23V8.52H20.2V9.39ZM20.2 6.17H4.23V5.3H20.2V6.17Z" fill="#173A6F"/>
<path d="M10.5601 19.41C10.5601 22.74 14.0801 25.45 18.4001 25.45C19.3601 25.45 20.3001 25.32 21.1901 25.05L21.3801 24.99L23.5801 27.02V23.93L23.7301 23.83C25.3301 22.69 26.2401 21.07 26.2401 19.41C26.2401 16.08 22.7201 13.37 18.4001 13.37C14.0801 13.37 10.5601 16.08 10.5601 19.41Z" fill="#173A6F"/>
</svg>
