<svg width="29" height="34" viewBox="0 0 29 34" fill="none" xmlns="http://www.w3.org/2000/svg">
<path d="M28.6572 14.5584C28.8267 14.3872 28.9209 14.1495 28.9209 13.9022V6.07567C28.9209 5.82842 28.8267 5.60018 28.6572 5.41949C28.4877 5.23881 28.2523 5.15322 28.0075 5.15322H13.6956V1.82479C13.6956 1.48244 13.4979 1.1591 13.1966 0.997436C12.8859 0.845279 12.5187 0.873808 12.2456 1.08302L1.32337 9.22342C1.08797 9.39459 0.956153 9.67038 0.956153 9.96518C0.956153 10.26 1.08797 10.5358 1.32337 10.7069L5.87116 14.121C5.68285 14.8913 5.57928 15.6901 5.57928 16.5079C5.57928 17.6966 5.78642 18.8378 6.16305 19.8934H1.86006C1.60584 19.8934 1.36103 19.998 1.18213 20.1787C1.00323 20.3594 0.899658 20.6066 0.899658 20.8634V28.6995C0.899658 28.9563 1.00323 29.2035 1.18213 29.3937C1.36103 29.5744 1.60584 29.679 1.86006 29.679H15.0421V32.9504C15.0421 33.3213 15.2492 33.6541 15.5694 33.8158C15.8895 33.9774 16.285 33.9489 16.5768 33.7302L27.4991 25.5898C27.7439 25.4091 27.8946 25.1143 27.8946 24.81C27.8946 24.4962 27.7533 24.2109 27.5085 24.0302L24.0341 21.4245C24.8533 19.9695 25.3241 18.2958 25.3241 16.5079C25.3241 15.9373 25.277 15.3763 25.1828 14.8247H28.017C28.2618 14.8247 28.4877 14.7296 28.6666 14.5584H28.6572ZM15.4564 25.4186C10.5884 25.4186 6.63384 21.4245 6.63384 16.5079C6.63384 11.5914 10.5884 7.59724 15.4564 7.59724C20.3243 7.59724 24.2789 11.5914 24.2789 16.5079C24.2789 21.4245 20.3243 25.4186 15.4564 25.4186Z" fill="#173A6F"/>
<path d="M6.63385 16.5079C6.63385 21.4244 10.5885 25.4185 15.4564 25.4185C20.3243 25.4185 24.2789 21.4244 24.2789 16.5079C24.2789 11.5913 20.3243 7.59717 15.4564 7.59717C10.5885 7.59717 6.63385 11.5913 6.63385 16.5079ZM22.3299 16.5079C22.3299 20.2928 19.298 23.3644 15.5411 23.3644C11.7843 23.3644 8.75239 20.2928 8.75239 16.5079C8.75239 12.723 11.7937 9.65129 15.5411 9.65129C19.2886 9.65129 22.3299 12.723 22.3299 16.5079Z" fill="white"/>
<path d="M15.3057 21.7383H16.0872C16.3226 21.7383 16.511 21.5481 16.511 21.3104V20.5781C17.1324 20.483 17.6785 20.2833 18.1305 19.979C18.8555 19.494 19.2227 18.8283 19.2415 17.9819C19.2509 17.4494 19.1097 17.0024 18.8084 16.6315C18.3188 16.0419 17.5561 15.671 16.511 15.5189V14.0449C16.6898 14.1305 16.8687 14.2446 17.0382 14.3967C17.1418 14.4823 17.2642 14.5299 17.4054 14.5299C17.5184 14.5299 17.6691 14.4538 17.6691 14.4538L18.5353 13.9022C18.6577 13.8261 18.7142 13.731 18.7142 13.6074C18.7142 13.5123 18.6766 13.4267 18.6012 13.3602C18.0551 12.7325 17.3584 12.3521 16.5015 12.2V11.3726C16.5015 11.1349 16.3132 10.9447 16.0778 10.9447H15.2963C15.0609 10.9447 14.8726 11.1349 14.8726 11.3726V12.1809C14.4677 12.238 14.1099 12.3426 13.7804 12.4853C12.7352 12.9703 12.2268 13.6835 12.2456 14.6345C12.2456 15.1005 12.3963 15.5189 12.6599 15.8803C13.1119 16.4984 13.8463 16.8788 14.8726 17.0405V18.8854C14.4301 18.7237 14.0158 18.4384 13.6203 18.0105C13.5356 17.8963 13.4226 17.8393 13.2814 17.8393C13.206 17.8393 13.046 17.9058 13.046 17.9058L12.255 18.3718C12.1232 18.4479 12.0573 18.5525 12.0573 18.6857C12.0573 18.7712 12.0856 18.8473 12.1515 18.9139C12.3586 19.2087 12.6317 19.4845 12.9801 19.7507C13.545 20.1882 14.1759 20.4545 14.8726 20.5686V21.3008C14.8726 21.5386 15.0609 21.7288 15.2963 21.7288L15.3057 21.7383ZM16.511 17.2497C16.9347 17.3828 17.1418 17.6301 17.1418 17.9914C17.1418 18.3338 16.9817 18.5906 16.6804 18.7807C16.6239 18.8188 16.5674 18.8473 16.511 18.8663V17.2497ZM14.3736 14.644C14.3736 14.3777 14.5242 14.178 14.8255 14.0258L14.882 14.0068V15.3192C14.5431 15.186 14.3736 14.9673 14.3736 14.6535V14.644Z" fill="white"/>
<path d="M14.3735 14.644C14.3735 14.9578 14.543 15.186 14.882 15.3097V13.9973L14.8255 14.0163C14.5242 14.159 14.3735 14.3682 14.3735 14.6345V14.644Z" fill="#173A6F"/>
<path d="M16.5109 18.8663C16.5674 18.8378 16.6333 18.8093 16.6803 18.7807C16.9817 18.6001 17.1323 18.3338 17.1417 17.9914C17.1417 17.6301 16.9346 17.3828 16.5109 17.2497V18.8663Z" fill="#173A6F"/>
<path d="M8.76178 16.5079C8.76178 20.2928 11.8031 23.3645 15.5505 23.3645C19.298 23.3645 22.3393 20.2928 22.3393 16.5079C22.3393 12.723 19.3074 9.65134 15.5505 9.65134C11.7936 9.65134 8.76178 12.723 8.76178 16.5079ZM16.5109 11.3726V12.2C17.3678 12.3521 18.0645 12.7325 18.6106 13.3602C18.686 13.4267 18.7236 13.5123 18.7236 13.6074C18.7236 13.7215 18.6577 13.8261 18.5447 13.9022L17.6785 14.4538C17.6785 14.4538 17.5278 14.5299 17.4148 14.5299C17.2736 14.5299 17.1512 14.4823 17.0476 14.3967C16.8781 14.2446 16.6992 14.1305 16.5203 14.0449V15.5189C17.5655 15.6615 18.3282 16.0324 18.8178 16.6315C19.1191 17.0024 19.2697 17.4494 19.2509 17.9819C19.2321 18.8283 18.8649 19.494 18.1398 19.979C17.6785 20.2833 17.1418 20.483 16.5203 20.5781V21.3104C16.5203 21.5481 16.332 21.7383 16.0966 21.7383H15.3151C15.0797 21.7383 14.8914 21.5481 14.8914 21.3104V20.5781C14.1852 20.464 13.5544 20.1977 12.9989 19.7603C12.6505 19.494 12.3774 19.2182 12.1703 18.9234C12.1138 18.8568 12.0761 18.7807 12.0761 18.6952C12.0761 18.562 12.142 18.4574 12.2738 18.3813L13.0648 17.9154C13.0648 17.9154 13.2154 17.8488 13.3002 17.8488C13.4414 17.8488 13.5544 17.9058 13.6391 18.02C14.0346 18.4479 14.4489 18.7427 14.8914 18.8949V17.05C13.8745 16.8883 13.1401 16.5079 12.6787 15.8898C12.4057 15.5284 12.2644 15.11 12.2644 14.644C12.2456 13.693 12.754 12.9703 13.7992 12.4948C14.1193 12.3426 14.4865 12.238 14.8914 12.1905V11.3821C14.8914 11.1444 15.0797 10.9542 15.3151 10.9542H16.0966C16.332 10.9542 16.5203 11.1444 16.5203 11.3821L16.5109 11.3726Z" fill="#173A6F"/>
</svg>
