<svg width="22" height="23" viewBox="0 0 22 23" fill="none" xmlns="http://www.w3.org/2000/svg">
<path d="M15.1999 5.31001C15.5199 5.39001 15.8399 5.19001 15.9199 4.88001L16.6199 2.03001C16.6999 1.71001 16.4999 1.39001 16.1899 1.31001L13.5499 0.660008C13.2299 0.580008 12.9099 0.780008 12.8299 1.09001C12.7499 1.41001 12.9499 1.73001 13.2599 1.81001L14.4299 2.10001L6.37988 7.94001C6.11988 8.13001 6.05988 8.50001 6.24988 8.77001C6.43988 9.03001 6.80988 9.09001 7.07988 8.90001L15.1499 3.03001L14.7699 4.59001C14.6899 4.91001 14.8899 5.23001 15.1999 5.31001Z" fill="white"/>
<path d="M6.6799 15.16H1.6499V19.9H6.6799V15.16Z" fill="white"/>
<path d="M13.9001 10.82H8.87012V19.89H13.9001V10.82Z" fill="white"/>
<path d="M0 0.540026V22.17C0 22.33 0.07 22.49 0.18 22.6C0.29 22.71 0.45 22.78 0.62 22.78H21.36C22.17 22.78 22.2 21.55 21.36 21.55H1.23V0.540026C1.23 -0.169974 0 -0.189974 0 0.540026Z" fill="white"/>
<path d="M21.12 16.24V15.29L17.47 19.89H18.23L21.12 16.24Z" fill="white"/>
<path d="M21.12 14.09V15.04L17.28 19.89H16.53L21.12 14.09Z" fill="white"/>
<path d="M16.8301 6.03L16.0801 6.98V6.03H16.8301Z" fill="white"/>
<path d="M21.1201 8.07001V9.03001L16.0801 15.4V14.44L21.1201 8.07001Z" fill="white"/>
<path d="M21.1201 9.28V10.23L16.0801 16.6V15.64L21.1201 9.28Z" fill="white"/>
<path d="M21.1201 12.88V13.84L16.3301 19.89H16.0801V19.25L21.1201 12.88Z" fill="white"/>
<path d="M21.1201 6.87V7.83L16.0801 14.19V13.24L21.1201 6.87Z" fill="white"/>
<path d="M21.1201 11.68V12.64L16.0801 19V18.05L21.1201 11.68Z" fill="white"/>
<path d="M17.7801 6.03L16.0801 8.18V7.22L17.0301 6.03H17.7801Z" fill="white"/>
<path d="M21.1201 10.48V11.43L16.0801 17.8V16.84L21.1201 10.48Z" fill="white"/>
<path d="M19.6801 6.03L16.0801 10.58V9.63L18.9301 6.03H19.6801Z" fill="white"/>
<path d="M21.1199 17.69V18.65L20.1399 19.89H19.3799L21.1199 17.69Z" fill="white"/>
<path d="M21.1201 18.9V19.85L21.0901 19.89H20.3301L21.1201 18.9Z" fill="white"/>
<path d="M20.6401 6.03L16.0801 11.79V10.83L19.8801 6.03H20.6401Z" fill="white"/>
<path d="M21.1199 17.45V16.49L18.4299 19.89H19.1799L21.1199 17.45Z" fill="white"/>
<path d="M18.7301 6.03L16.0801 9.38V8.43L17.9801 6.03H18.7301Z" fill="white"/>
<path d="M21.1201 6.03V6.62L16.0801 12.99V12.03L20.8301 6.03H21.1201Z" fill="white"/>
</svg>
