<svg width="24" height="24" viewBox="0 0 24 24" fill="none" xmlns="http://www.w3.org/2000/svg">
<path d="M19.15 2.52C17.6 1.08 15.28 0.109998 12.83 0.0599976L12.77 9.1L19.16 2.52H19.15Z" fill="white"/>
<path d="M11.13 0C4.73 0 0 5.19 0 11.59C0 17.99 5.19 23.18 11.59 23.18C16.08 23.18 20.25 20.53 21.79 17.11L11.37 11.59V0C11.29 0 11.21 0 11.14 0H11.13Z" fill="white"/>
<path d="M16.3899 12.54L18.7699 4.96001L17.0999 6.67001L15.4199 12.02L16.3899 12.54Z" fill="white"/>
<path d="M15.1399 11.87L16.6099 7.17999L14.9399 8.89999L14.1699 11.35L15.1399 11.87Z" fill="white"/>
<path d="M20.1499 14.56L22.4999 7.07999C22.2999 6.58999 22.0699 6.12999 21.8099 5.67999L19.1899 14.04L20.1599 14.56H20.1499Z" fill="white"/>
<path d="M21.4099 15.23L23.1799 9.58C23.0799 8.89 22.9099 8.21 22.6799 7.56L20.4399 14.71L21.4099 15.23Z" fill="white"/>
<path d="M22.2699 15.69C22.9999 14.28 23.2799 12.63 23.2799 10.93C23.2799 10.75 23.2799 10.57 23.2599 10.39L21.6899 15.38L22.2599 15.68L22.2699 15.69Z" fill="white"/>
<path d="M16.6799 12.69L17.6499 13.21L20.5599 3.95C20.4299 3.81 20.2999 3.67 20.1699 3.53L19.2699 4.45L16.6799 12.69Z" fill="white"/>
<path d="M14.44 9.41L13.11 10.78L13.88 11.19L14.44 9.41Z" fill="white"/>
<path d="M18.8999 13.88L21.5899 5.31C21.3499 4.93 21.0799 4.57 20.7999 4.22L17.9299 13.35L18.8999 13.87V13.88Z" fill="white"/>
</svg>
