<svg width="28" height="22" viewBox="0 0 28 22" fill="none" xmlns="http://www.w3.org/2000/svg">
<path d="M27.1798 8.05077C27.1798 10.5172 25.1724 12.5066 22.6837 12.5066C20.6529 12.5066 18.9155 11.1571 18.3755 9.31888C18.3168 9.13273 18.0703 9.13273 18.0116 9.31888C17.4598 11.1687 15.7342 12.5066 13.7033 12.5066C11.6724 12.5066 9.93503 11.1687 9.39503 9.31888C9.33634 9.13273 9.08982 9.13273 9.03112 9.31888C8.47938 11.1687 6.75373 12.5066 4.72286 12.5066C2.22242 12.5066 -0.13714 10.4939 0.215034 8.05077C0.54373 5.80539 2.80938 0 2.80938 0H24.5855L27.1798 8.05077Z" fill="white"/>
<path d="M26.5226 12.6229V22H16.11V16.5436H11.25V22H0.837402V12.7276C1.83523 13.7398 3.25566 14.3331 4.71132 14.3331C6.63653 14.3331 8.32697 13.2861 9.2074 11.7271C10.0878 13.2861 11.7783 14.3331 13.7035 14.3331C15.6287 14.3331 17.3191 13.2861 18.1996 11.7271C19.08 13.2861 20.7704 14.3331 22.6957 14.3331C24.2335 14.3331 25.607 13.67 26.5344 12.6229H26.5226Z" fill="white"/>
</svg>
