<svg width="25" height="24" viewBox="0 0 25 24" fill="none" xmlns="http://www.w3.org/2000/svg">
<path d="M12.24 0C5.61999 0 0.23999 5.38 0.23999 11.99C0.23999 18.6 5.61999 23.99 12.24 23.99C18.86 23.99 24.23 18.61 24.23 11.99C24.23 5.37 18.85 0 12.24 0ZM12.37 21.66C7.02999 21.66 2.69999 17.33 2.69999 11.99C2.69999 6.65 7.02999 2.32 12.37 2.32C17.71 2.32 22.03 6.65 22.03 11.99C22.03 17.33 17.7 21.66 12.37 21.66Z" fill="white"/>
<path d="M12.34 3.28C7.53 3.28 3.63 7.18 3.63 11.99C3.63 16.8 7.53 20.7 12.34 20.7C17.15 20.7 21.05 16.8 21.05 11.99C21.05 7.18 17.15 3.28 12.34 3.28ZM17.86 12.99L12.46 18.35C12.46 18.35 12.38 18.4 12.34 18.4C12.3 18.4 12.26 18.38 12.22 18.35L7.02 13.18C6.90001 13.08 6.8 12.98 6.69 12.86H10.54L11.37 11L12.73 15.63L14.12 12.87H17.96C17.96 12.87 17.89 12.95 17.85 12.99H17.86ZM18.35 12.36H13.82L12.87 14.27L11.48 9.56L10.23 12.36H6.33C6.21001 12.16 6.1 11.95 6.02 11.71C5.89001 11.36 5.82 10.97 5.82 10.58C5.82 8.7 7.35 7.17 9.23 7.17C10.61 7.17 11.8 7.99 12.34 9.17C12.88 7.99 14.07 7.17 15.45 7.17C17.33 7.17 18.86 8.7 18.86 10.58C18.86 10.99 18.79 11.38 18.66 11.74C18.58 11.96 18.48 12.17 18.35 12.36Z" fill="white"/>
</svg>
