<svg width="27" height="27" viewBox="0 0 27 27" fill="none" xmlns="http://www.w3.org/2000/svg">
<path d="M13.139 3.64813C7.91601 3.64813 3.68112 7.88358 3.68112 13.1073C3.68112 18.331 7.91601 22.5665 13.139 22.5665C18.3621 22.5665 22.597 18.331 22.597 13.1073C22.597 7.88358 18.3621 3.64813 13.139 3.64813ZM16.907 18.2441C16.2338 18.6894 15.4302 18.9826 14.5181 19.1129V20.1772C14.5181 20.5248 14.2358 20.8071 13.8883 20.8071H12.7481C12.4007 20.8071 12.1183 20.5248 12.1183 20.1772V19.1129C11.0867 18.95 10.1529 18.5591 9.32764 17.9183C8.80642 17.5274 8.40465 17.1255 8.10061 16.702C8.01374 16.6043 7.95945 16.4957 7.95945 16.3653C7.95945 16.1807 8.05717 16.0287 8.25263 15.9092L9.42537 15.225C9.42537 15.225 9.6534 15.1164 9.77285 15.1164C9.97916 15.1164 10.1529 15.2033 10.2723 15.3662C10.8587 15.9961 11.4668 16.4196 12.1183 16.6477V13.9544C10.6198 13.7263 9.5231 13.1616 8.86072 12.2602C8.45895 11.7389 8.25263 11.1308 8.24177 10.4466C8.22005 9.04561 8.9693 7.99218 10.5112 7.29713C10.989 7.07993 11.5211 6.92789 12.1183 6.84101V5.65725C12.1183 5.30973 12.4007 5.03823 12.7481 5.03823H13.8883C14.2358 5.03823 14.5181 5.30973 14.5181 5.65725V6.87359C15.7777 7.09079 16.8093 7.65552 17.6128 8.56777C17.7214 8.67637 17.7866 8.79583 17.7757 8.93701C17.7757 9.11077 17.6888 9.25195 17.5151 9.36056L16.2229 10.1642C16.2229 10.1642 15.9949 10.2837 15.832 10.2837C15.6257 10.2837 15.4519 10.2185 15.2999 10.0882C15.0502 9.87098 14.7896 9.69722 14.5181 9.57776V11.7281C16.0492 11.9453 17.1785 12.4883 17.906 13.3462C18.3512 13.8892 18.5684 14.5517 18.5575 15.3228C18.525 16.5717 17.982 17.5382 16.907 18.2441ZM14.5181 14.2476V16.6151C14.605 16.5717 14.6918 16.5282 14.7678 16.4848C15.2131 16.2133 15.4411 15.8223 15.4411 15.3336C15.4519 14.8015 15.137 14.4431 14.5181 14.2476ZM11.3582 10.4466C11.3691 10.9136 11.6188 11.2394 12.1183 11.424V9.5126L12.0315 9.54518C11.5862 9.76238 11.3582 10.0665 11.3582 10.4466Z" fill="white"/>
<path d="M13.0304 0.0860119C5.84198 0.0860119 0 5.92876 0 13.1073C0 20.2858 5.84198 26.1394 13.0304 26.1394C20.2189 26.1394 26.05 20.2967 26.05 13.1073C26.05 5.9179 20.208 0.0860119 13.0304 0.0860119ZM13.1716 23.609C7.37305 23.609 2.67124 18.9066 2.67124 13.1073C2.67124 7.30799 7.37305 2.60556 13.1716 2.60556C18.9701 2.60556 23.6611 7.30799 23.6611 13.1073C23.6611 18.9066 18.9593 23.609 13.1716 23.609Z" fill="white"/>
</svg>
