<svg width="29" height="24" viewBox="0 0 29 24" fill="none" xmlns="http://www.w3.org/2000/svg">
<path d="M23.9902 11.8C24.1002 18.41 18.8002 23.88 12.1902 23.98C5.57017 24.09 0.110174 18.8 0.000174029 12.18C-0.099826 5.56999 5.19017 0.0999901 11.8002 -9.85665e-06C15.7002 -0.0600099 19.1902 1.73999 21.4202 4.59999L20.8502 4.94999C20.6402 4.66999 20.4002 4.39999 20.1502 4.13999C20.0202 3.99999 19.8902 3.86999 19.7502 3.74999C19.6702 3.66999 19.5902 3.59999 19.5102 3.52999C19.3802 3.39999 19.2302 3.27999 19.0902 3.16999C18.9302 3.03999 18.7602 2.90999 18.5902 2.78999C18.4402 2.67999 18.2902 2.56999 18.1302 2.47999C17.9402 2.34999 17.7402 2.22999 17.5402 2.11999C17.4002 2.02999 17.2602 1.95999 17.1202 1.89999C17.0202 1.83999 16.9102 1.78999 16.8102 1.73999C16.6702 1.66999 16.5302 1.60999 16.3902 1.54999C16.0102 1.38999 15.6102 1.23999 15.2002 1.12999C15.0302 1.06999 14.8602 1.02999 14.6802 0.98999C14.6602 0.98999 14.6402 0.96999 14.6202 0.96999C14.4602 0.92999 14.3002 0.89999 14.1402 0.86999C13.9602 0.82999 13.7802 0.79999 13.5902 0.77999C13.4902 0.75999 13.4002 0.74999 13.3002 0.73999C13.0802 0.70999 12.8602 0.68999 12.6402 0.67999C12.3702 0.65999 12.0902 0.65999 11.8102 0.65999C5.57017 0.75999 0.570174 5.92999 0.670174 12.17C0.770174 18.42 5.93017 23.42 12.1802 23.32C18.4202 23.22 23.4202 18.05 23.3202 11.81C23.3202 11.63 23.3102 11.45 23.3002 11.27C23.2202 9.95999 22.9102 8.70999 22.4202 7.56999L22.9902 7.22999C23.6102 8.63999 23.9702 10.18 23.9902 11.8Z" fill="white"/>
<path d="M22.6903 11.82C22.7903 17.73 18.0803 22.59 12.1703 22.69C6.26027 22.78 1.39027 18.07 1.30027 12.16C1.20027 6.25001 5.92027 1.39001 11.8203 1.29001C12.0803 1.29001 12.3503 1.29001 12.6103 1.31001C12.7103 1.31001 12.8203 1.32001 12.9303 1.34001H13.0003C13.1203 1.35001 13.2403 1.36001 13.3603 1.38001C13.5203 1.40001 13.6803 1.42001 13.8303 1.45001C13.9203 1.46001 14.0103 1.48001 14.1003 1.50001C14.1903 1.52001 14.2803 1.54001 14.3603 1.56001C14.4403 1.58001 14.5103 1.59001 14.5803 1.61001C14.6503 1.62001 14.7203 1.64001 14.8003 1.67001C14.9503 1.70001 15.0903 1.74001 15.2303 1.79001C15.4103 1.85001 15.5903 1.91001 15.7703 1.98001C15.9203 2.04001 16.0803 2.10001 16.2303 2.17001C16.2703 2.18001 16.3003 2.19001 16.3303 2.21001C16.4603 2.26001 16.5803 2.32001 16.7003 2.38001C17.4103 2.73001 18.0703 3.15001 18.6803 3.64001C18.8303 3.76001 18.9703 3.88001 19.1103 4.00001C19.2503 4.13001 19.3903 4.26001 19.5303 4.40001C19.6703 4.54001 19.8003 4.68001 19.9303 4.82001C20.0603 4.97001 20.1903 5.12001 20.3103 5.27001L18.0003 6.66001C16.5003 4.97001 14.3003 3.93001 11.8703 3.97001C7.44027 4.04001 3.90027 7.69001 3.97027 12.12C4.04027 16.55 7.69027 20.09 12.1203 20.01C16.5603 19.94 20.0903 16.29 20.0203 11.86C20.0103 10.97 19.8403 10.11 19.5503 9.31001L21.8803 7.90001C21.9403 8.05001 22.0003 8.20001 22.0603 8.36001C22.1203 8.51001 22.1703 8.67001 22.2203 8.82001C22.3203 9.14001 22.4003 9.46001 22.4703 9.79001C22.5103 9.97001 22.5403 10.16 22.5703 10.35V10.38C22.5803 10.47 22.6003 10.57 22.6103 10.67C22.6303 10.83 22.6503 10.99 22.6603 11.16C22.6803 11.38 22.6903 11.6 22.6903 11.82Z" fill="white"/>
<path d="M17.3502 11.9C17.3902 14.86 15.0402 17.29 12.0802 17.34C9.13019 17.39 6.69019 15.03 6.65019 12.08C6.60019 9.11999 8.96019 6.68999 11.9102 6.63999C13.3502 6.61999 14.6702 7.16999 15.6402 8.08999L13.1702 9.57999C12.8002 9.39999 12.3902 9.30999 11.9502 9.31999C10.4802 9.33999 9.30019 10.56 9.32019 12.03C9.35019 13.51 10.5602 14.69 12.0402 14.67C13.4202 14.64 14.5202 13.59 14.6602 12.26L17.1902 10.73C17.2902 11.11 17.3402 11.5 17.3502 11.9Z" fill="white"/>
<path d="M28.1302 4.86001C28.1302 4.92001 28.1002 4.98001 28.0402 5.01001L27.6902 5.23001C27.5902 5.29001 27.4602 5.29001 27.3502 5.23001L25.6202 4.32001L25.5402 4.37001L27.1702 5.23001C27.2202 5.26001 27.2602 5.31001 27.2602 5.38001C27.2602 5.44001 27.2302 5.50001 27.1702 5.53001L26.8202 5.74001C26.7202 5.80001 26.5902 5.81001 26.4802 5.75001L24.7602 4.84001L24.6702 4.89001L26.3002 5.75001C26.3002 5.75001 26.3902 5.84001 26.3902 5.90001C26.3902 5.96001 26.3602 6.02001 26.3102 6.05001L25.9502 6.27001C25.8502 6.33001 25.7202 6.33001 25.6202 6.28001L24.1002 5.48001C24.1002 5.48001 23.9902 5.45001 23.9302 5.48001L22.5602 6.31001L21.9902 6.66001L21.4602 6.98001L19.1502 8.37001L16.8602 9.76001L14.5402 11.16L12.8402 12.19C12.6202 12.32 12.3402 12.25 12.2002 12.04L12.1702 12C12.0102 11.74 12.0802 11.39 12.3502 11.23L14.0102 10.23L16.3202 8.84001L18.6202 7.45001L20.9102 6.06001L21.4402 5.74001L22.0102 5.40001L23.3902 4.57001C23.3902 4.57001 23.4702 4.48001 23.4702 4.42001L23.4302 2.78001C23.4302 2.66001 23.4902 2.54001 23.6002 2.48001L23.9502 2.27001C24.0002 2.23001 24.0702 2.23001 24.1202 2.26001C24.1802 2.29001 24.2102 2.35001 24.2102 2.41001L24.2502 4.23001L24.3502 4.18001L24.3002 2.25001C24.3002 2.13001 24.3602 2.02001 24.4702 1.95001L24.8202 1.74001C24.8202 1.74001 24.9402 1.71001 24.9902 1.74001C25.0502 1.77001 25.0802 1.82001 25.0802 1.89001L25.1202 3.71001L25.2102 3.65001L25.1702 1.73001C25.1702 1.61001 25.2302 1.49001 25.3402 1.43001L25.6902 1.22001C25.7402 1.18001 25.8102 1.18001 25.8602 1.21001C25.9102 1.24001 25.9502 1.30001 25.9502 1.36001L25.9902 3.18001L26.1802 3.07001C26.2602 3.02001 26.3602 3.05001 26.4102 3.13001L26.6402 3.49001C26.6402 3.49001 26.6802 3.58001 26.6702 3.63001C26.6602 3.67001 26.6302 3.71001 26.5902 3.73001L26.4002 3.84001L28.0302 4.70001C28.0902 4.73001 28.1302 4.79001 28.1302 4.85001V4.86001Z" fill="white"/>
</svg>
