<svg width="27" height="27" viewBox="0 0 27 27" fill="none" xmlns="http://www.w3.org/2000/svg">
<path d="M13.4604 0.176636C6.27191 0.176636 0.429932 6.01861 0.429932 13.1962C0.429932 20.3738 6.27191 26.2266 13.4604 26.2266C20.6488 26.2266 26.4799 20.3847 26.4799 13.1962C26.4799 6.00775 20.638 0.176636 13.4604 0.176636ZM13.6015 23.6966C7.80298 23.6966 3.10117 18.9947 3.10117 13.1962C3.10117 7.39766 7.80298 2.69585 13.6015 2.69585C19.4001 2.69585 24.091 7.39766 24.091 13.1962C24.091 18.9947 19.3892 23.6966 13.6015 23.6966Z" fill="white"/>
<path d="M13.569 3.73831C8.34594 3.73831 4.11105 7.9732 4.11105 13.1962C4.11105 18.4193 8.34594 22.6542 13.569 22.6542C18.792 22.6542 23.0269 18.4193 23.0269 13.1962C23.0269 7.9732 18.792 3.73831 13.569 3.73831ZM13.417 4.42241L13.4387 4.40069H13.4604C16.2836 7.14794 16.4139 11.6 13.7861 14.4884C13.7319 14.5427 13.6884 14.6079 13.6341 14.6622L13.6124 14.6839H13.5907C13.2649 14.3581 12.9826 14.0215 12.7329 13.6632C10.7349 10.8725 10.9412 6.9742 13.4061 4.42241H13.417ZM14.0033 17.6049L14.0793 21.9701H13.4061L13.3301 17.6157C10.2788 17.4963 7.81387 15.0205 7.75957 11.9258C7.82473 11.9149 7.87902 11.904 7.94417 11.904C10.7891 11.8498 13.1889 13.8586 13.7319 16.5516C14.1771 13.8369 16.5117 11.752 19.3458 11.6977H19.3675V11.7195C19.4218 14.8142 17.0438 17.366 14.0033 17.594V17.6049Z" fill="white"/>
</svg>
