<svg width="1920" height="240" fill="none" xmlns="http://www.w3.org/2000/svg"><g clip-path="url(#clip0_88586_10656)"><path fill="#fff" d="M0 0h1920v240H0z"/><path fill="#fff" d="M235 4h1450v226H235z"/><path fill="#DDE1FF" d="M-243-62h2222v589H-243z"/><path fill-rule="evenodd" clip-rule="evenodd" d="M1449.17 167.721c.84-47.675 43.52-80.917 67.37-122.21 24.44-42.329 29.25-102.622 73.91-122.47 44.7-19.86 94.34 11.118 140.54 27.18 40.93 14.23 184.17-34.018 211.01 0 26.23 33.238 67.11 142.96 68.5 185.279 1.32 40.197-10.54 172.47-25 210-17.6 45.684-161.32 3.379-204.83 25.829-43.79 22.599-95.87-2.36-143.4-15.378-45.49-12.457-91.83-24.816-125.16-58.175-34.9-34.922-63.81-80.693-62.94-130.055z" fill="#DDE1FF"/><ellipse opacity=".5" cx="1699" cy="-1.5" rx="61" ry="116.5" fill="#224CE7"/><path d="M1749.26 18.72c-23.29 1.617-51.65 2.179-72.26 14.686-24.84 15.072-36.25 52.385-48.43 76.949-8.18 16.47-16.71 32.746-27.9 47.43-10.36 13.587-26.41 19.151-42.75 22.206-18.04 3.372-36.97-1.764-55-2.873-25.19-1.549-51.67-1.22-75.67 7.581-61.19 22.443-78.65 89.59-126.44 127.541-16.06 12.749-28.82 11.788-48.23 7.991-21.87-4.279-44.53-4.043-64.82-14.107" stroke="#fff" stroke-width="8" stroke-linecap="round"/><path fill-rule="evenodd" clip-rule="evenodd" d="M778.323 556.065c-38.341 89.436-144.626 119.332-221.517 178.969-78.819 61.132-134.394 171.347-234.096 174.407-99.766 3.061-169.675-93.748-244.58-159.716C11.765 691.277-61.433 634.531-85.926 549.558c-23.931-83.028 4.136-169.533 34.14-250.564C-23.288 222.025-132.756-1.236-76.5-61c68.476-72.747 285.944-14.376 385.455-23.249C409.129-93.181 488.287-5.864 568.059 55.382c76.336 58.608 154.358 117.689 191.622 206.421 39.01 92.891 58.339 201.663 18.642 294.262z" fill="#224CE7"/><g clip-path="url(#clip1_88586_10656)"><path d="M684.847 196C700.948 196 714 183.016 714 167s-13.052-29-29.153-29-29.153 12.984-29.153 29 13.052 29 29.153 29z" fill="#fff"/><path d="M696.237 182.156c8.415 0 15.236-6.785 15.236-15.156s-6.821-15.156-15.236-15.156c-8.415 0-15.237 6.785-15.237 15.156s6.822 15.156 15.237 15.156z" fill="#231815"/><path d="M641.268 159.664h-40.229c-4.992 0-9.039 4.026-9.039 8.991 0 4.966 4.047 8.992 9.039 8.992h40.229c4.992 0 9.038-4.026 9.038-8.992 0-4.965-4.046-8.991-9.038-8.991z" fill="#fff"/><mask id="a" style="mask-type:luminance" maskUnits="userSpaceOnUse" x="592" y="159" width="59" height="19"><path d="M641.268 159.664h-40.229c-4.992 0-9.039 4.026-9.039 8.991 0 4.966 4.047 8.992 9.039 8.992h40.229c4.992 0 9.038-4.026 9.038-8.992 0-4.965-4.046-8.991-9.038-8.991z" fill="#fff"/></mask><g mask="url(#a)"><path d="M631.237 182.156c8.415 0 15.236-6.785 15.236-15.156s-6.821-15.156-15.236-15.156c-8.415 0-15.237 6.785-15.237 15.156s6.822 15.156 15.237 15.156z" fill="#231815"/></g></g><path d="M702.686 221.553l3.061-1.409.641-1.548c-6.948-3.299-12.487-9.614-14.504-18.107-2.744-11.639 2.6-24.401 12.892-30.715 15.536-9.564 35.177-2.082 40.108 15.279 3.281 11.485-1.512 24.457-11.512 31.241-7.307 4.941-15.726 5.939-23.122 3.773l-.586 1.569 1.297 3.07-9.489 24.091c-.915 2.324-3.511 3.518-5.773 2.657-2.262-.862-3.362-3.465-2.447-5.789l9.434-24.112zm23.249-10.7c9.648-4.441 14.136-15.834 10.047-25.508-4.089-9.674-15.179-13.898-24.827-9.458-9.648 4.441-14.136 15.834-10.047 25.508 4.089 9.674 15.178 13.899 24.827 9.458z" fill="#9E9E9E"/><circle cx="1401.5" cy="198.5" r="13.5" fill="#00228A"/><path d="M509.48 235.396c-13.149-19.29-27.945-43.488-49.146-54.973-25.547-13.84-63.516-4.859-90.874-2.983-18.342 1.257-36.702 2.098-55.026-.152-16.956-2.083-29.857-13.128-40.742-25.697-12.016-13.875-17.135-32.81-25.275-48.933-11.372-22.526-25.024-45.228-44.731-61.503C153.431-.347 86.648 18.461 29.767-3.645 10.66-11.072 5.047-22.578-1.47-41.253-8.813-62.292-20.451-81.736-22-104.33" stroke="#00228A" stroke-width="8" stroke-linecap="round"/></g><defs><clipPath id="clip0_88586_10656"><path fill="#fff" d="M0 0h1920v240H0z"/></clipPath><clipPath id="clip1_88586_10656"><path fill="#fff" transform="translate(592 138)" d="M0 0h122v58H0z"/></clipPath></defs></svg>