<svg width="51" height="44" viewBox="0 0 51 44" fill="none" xmlns="http://www.w3.org/2000/svg">
<path d="M45 4.4C45.825 4.4 46.5 5.06 46.5 5.86667V29.3333C46.5 30.14 45.825 30.8 45 30.8H15C14.175 30.8 13.5 30.14 13.5 29.3333V5.86667C13.5 5.06 14.175 4.4 15 4.4H45ZM15 0C11.6906 0 9 2.63083 9 5.86667V29.3333C9 32.5692 11.6906 35.2 15 35.2H45C48.3094 35.2 51 32.5692 51 29.3333V5.86667C51 2.63083 48.3094 0 45 0H15ZM22.5 10.2667C22.5 8.64417 21.1594 7.33333 19.5 7.33333C17.8406 7.33333 16.5 8.64417 16.5 10.2667C16.5 11.8892 17.8406 13.2 19.5 13.2C21.1594 13.2 22.5 11.8892 22.5 10.2667ZM35.6906 10.615C35.2875 9.94583 34.5469 9.53333 33.75 9.53333C32.9531 9.53333 32.2125 9.94583 31.8094 10.615L27.45 17.8567L25.8375 15.6017C25.4156 15.015 24.7312 14.6667 23.9906 14.6667C23.25 14.6667 22.5656 15.015 22.1438 15.6017L16.8937 22.935C16.4156 23.6042 16.35 24.4842 16.7438 25.2083C17.1375 25.9325 17.9156 26.4 18.75 26.4H41.25C42.0563 26.4 42.8062 25.9783 43.2 25.2908C43.5938 24.6033 43.5938 23.76 43.1906 23.0817L35.6906 10.615ZM4.5 11C4.5 9.78083 3.49688 8.8 2.25 8.8C1.00312 8.8 0 9.78083 0 11V38.1333C0 41.3692 2.69063 44 6 44H39.75C40.9969 44 42 43.0192 42 41.8C42 40.5808 40.9969 39.6 39.75 39.6H6C5.175 39.6 4.5 38.94 4.5 38.1333V11Z" fill="#F5A217"/>
</svg>
