<svg width="84" height="29" viewBox="0 0 84 29" fill="none" xmlns="http://www.w3.org/2000/svg">
<path d="M69.4984 28.251C61.8344 28.251 55.599 22.0353 55.599 14.3958C55.599 6.75618 61.8344 0.540527 69.4984 0.540527C77.1623 0.540527 83.3978 6.75618 83.3978 14.3958C83.3978 22.0353 77.1623 28.251 69.4984 28.251ZM69.4984 11.1528C67.7049 11.1528 66.2451 12.608 66.2451 14.3958C66.2451 16.1835 67.7049 17.6387 69.4984 17.6387C71.2918 17.6387 72.7516 16.1835 72.7516 14.3958C72.7516 12.608 71.2918 11.1528 69.4984 11.1528Z" fill="#37B5FE"/>
<g opacity="0.8">
<path d="M41.5013 28.0533C40.8131 28.0533 40.1145 27.9182 39.4368 27.6376C36.7257 26.4943 35.4535 23.3864 36.6006 20.684L43.8787 3.50274C45.0257 0.80029 48.1434 -0.467819 50.8545 0.675492C53.5656 1.8189 54.8377 4.92673 53.6907 7.62908L46.4126 24.8104C45.5575 26.8373 43.5868 28.0533 41.5118 28.0533" fill="#395EF7"/>
</g>
<path d="M41.5118 28.0536C39.4681 28.0536 37.5182 26.8791 36.6423 24.8938L29.0201 7.71251C27.8313 5.03087 29.0409 1.90223 31.7311 0.706928C34.4213 -0.477918 37.5599 0.727744 38.7486 3.40938L46.3709 20.5907C47.5596 23.2723 46.3501 26.401 43.6598 27.5963C42.9611 27.8977 42.2312 28.0536 41.5118 28.0536Z" fill="#395EF7"/>
<path d="M28.1858 14.1359C28.1649 17.8569 26.6947 21.3598 24.0567 23.9894C21.3039 26.723 17.6961 28.095 14.0883 28.095C10.4805 28.095 6.86229 26.723 4.11994 23.9894C1.71121 21.5883 0.355723 18.5118 0.0637621 15.3623C-0.0405516 14.2607 -0.0196683 13.1381 0.147096 12.0466C0.564253 9.13633 1.88847 6.34035 4.11994 4.11608C5.6318 2.60893 7.41494 1.48643 9.37523 0.800387C10.2615 0.488539 11.1895 0.259857 12.128 0.135157C12.7536 0.0519909 13.3896 0 14.0257 0H14.0361C16.7785 0 19.0099 2.21401 19.0099 4.94754C19.0203 7.69163 16.7994 9.9159 14.057 9.92636C12.9622 9.92636 11.9298 10.3524 11.1478 11.1217C9.53161 12.7327 9.53161 15.3623 11.1478 16.9735C11.9611 17.7842 13.0247 18.1791 14.0883 18.1791C15.1519 18.1791 16.2154 17.7738 17.0184 16.9735C17.8003 16.2043 18.2279 15.1753 18.2383 14.0735C18.2488 11.3503 20.4697 9.14678 23.2121 9.14678H23.2329C25.9857 9.15714 28.1963 11.3919 28.1858 14.1359Z" fill="#FFCB24"/>
<path d="M15.1102 3.89797C15.1102 5.17644 14.0675 6.21587 12.7849 6.21587C11.5024 6.21587 10.4597 5.17644 10.4597 3.89797C10.4597 2.6195 11.5024 1.58008 12.7849 1.58008C14.0675 1.58008 15.1102 2.6195 15.1102 3.89797Z" fill="white"/>
<path d="M14.8807 3.89766C14.8807 4.56289 14.3385 5.11378 13.6607 5.11378C12.983 5.11378 12.4408 4.57335 12.4408 3.89766C12.4408 3.22207 12.983 2.68164 13.6607 2.68164C14.3385 2.68164 14.8807 3.22207 14.8807 3.89766Z" fill="black"/>
</svg>
