<svg width="82" height="81" viewBox="0 0 82 81" fill="none" xmlns="http://www.w3.org/2000/svg">
<g filter="url(#filter0_d_140_206)">
<g clip-path="url(#clip0_140_206)">
<rect x="3.62524" width="75" height="75" rx="37.5" fill="white"/>
<path d="M39.3381 49.7754C37.7415 51.3721 35.134 51.3721 33.5374 49.7754L24.1624 40.4004C22.5657 38.8037 22.5657 36.1963 24.1624 34.5996C25.759 33.0029 28.3665 33.0029 29.9631 34.5996L36.4377 41.0742L52.2874 25.2246C53.884 23.6279 56.4915 23.6279 58.0881 25.2246C59.6848 26.8213 59.6848 29.4287 58.0881 31.0254L39.3381 49.7754ZM78.6252 37.5C78.6252 58.2129 61.8381 75 41.1252 75C20.4124 75 3.62524 58.2129 3.62524 37.5C3.62524 16.7871 20.4124 0 41.1252 0C61.8381 0 78.6252 16.7871 78.6252 37.5ZM41.1252 7.03125C24.2942 7.03125 10.6565 20.6689 10.6565 37.5C10.6565 54.3311 24.2942 67.9688 41.1252 67.9688C57.9563 67.9688 71.594 54.3311 71.594 37.5C71.594 20.6689 57.9563 7.03125 41.1252 7.03125Z" fill="#6AC000"/>
</g>
</g>
<defs>
<filter id="filter0_d_140_206" x="0.625244" y="0" width="81" height="81" filterUnits="userSpaceOnUse" color-interpolation-filters="sRGB">
<feFlood flood-opacity="0" result="BackgroundImageFix"/>
<feColorMatrix in="SourceAlpha" type="matrix" values="0 0 0 0 0 0 0 0 0 0 0 0 0 0 0 0 0 0 127 0" result="hardAlpha"/>
<feOffset dy="3"/>
<feGaussianBlur stdDeviation="1.5"/>
<feColorMatrix type="matrix" values="0 0 0 0 0 0 0 0 0 0 0 0 0 0 0 0 0 0 0.1 0"/>
<feBlend mode="normal" in2="BackgroundImageFix" result="effect1_dropShadow_140_206"/>
<feBlend mode="normal" in="SourceGraphic" in2="effect1_dropShadow_140_206" result="shape"/>
</filter>
<clipPath id="clip0_140_206">
<rect x="3.62524" width="75" height="75" rx="37.5" fill="white"/>
</clipPath>
</defs>
</svg>
