<svg width="66" height="66" viewBox="0 0 66 66" fill="none" xmlns="http://www.w3.org/2000/svg">
<g filter="url(#filter0_d_140_363)">
<g clip-path="url(#clip0_140_363)">
<rect x="3" width="60" height="60" rx="30" fill="white"/>
<path d="M63 30C63 46.5703 49.5703 60 33 60C16.4297 60 3 46.5703 3 30C3 13.4297 16.4297 0 33 0C49.5703 0 63 13.4297 63 30ZM33 5.625C19.5352 5.625 8.625 16.5352 8.625 30C8.625 43.4648 19.5352 54.375 33 54.375C46.4648 54.375 57.375 43.4648 57.375 30C57.375 16.5352 46.4648 5.625 33 5.625Z" fill="#FF9900"/>
<path d="M29.8741 35.3662L27 13H38L35.1578 35.3662H29.8741ZM28.5669 46V38.4491H36.4878V46H28.5669Z" fill="#FF9900"/>
</g>
</g>
<defs>
<filter id="filter0_d_140_363" x="0" y="0" width="66" height="66" filterUnits="userSpaceOnUse" color-interpolation-filters="sRGB">
<feFlood flood-opacity="0" result="BackgroundImageFix"/>
<feColorMatrix in="SourceAlpha" type="matrix" values="0 0 0 0 0 0 0 0 0 0 0 0 0 0 0 0 0 0 127 0" result="hardAlpha"/>
<feOffset dy="3"/>
<feGaussianBlur stdDeviation="1.5"/>
<feColorMatrix type="matrix" values="0 0 0 0 0 0 0 0 0 0 0 0 0 0 0 0 0 0 0.1 0"/>
<feBlend mode="normal" in2="BackgroundImageFix" result="effect1_dropShadow_140_363"/>
<feBlend mode="normal" in="SourceGraphic" in2="effect1_dropShadow_140_363" result="shape"/>
</filter>
<clipPath id="clip0_140_363">
<rect x="3" width="60" height="60" rx="30" fill="white"/>
</clipPath>
</defs>
</svg>
