<svg width="12" height="12" viewBox="0 0 12 12" fill="none" xmlns="http://www.w3.org/2000/svg">
<path d="M11.2499 0.758276C11.1728 0.681023 11.0813 0.619733 10.9805 0.577915C10.8796 0.536097 10.7716 0.514572 10.6624 0.514572C10.5533 0.514572 10.4452 0.536097 10.3444 0.577915C10.2436 0.619733 10.152 0.681023 10.0749 0.758276L5.99994 4.82494L1.92494 0.749942C1.84779 0.67279 1.7562 0.61159 1.65539 0.569836C1.55459 0.528082 1.44655 0.506592 1.33744 0.506592C1.22833 0.506592 1.12029 0.528082 1.01949 0.569836C0.918686 0.61159 0.827094 0.67279 0.749942 0.749942C0.67279 0.827094 0.61159 0.918686 0.569836 1.01949C0.528082 1.12029 0.506592 1.22833 0.506592 1.33744C0.506592 1.44655 0.528082 1.55459 0.569836 1.65539C0.61159 1.7562 0.67279 1.84779 0.749942 1.92494L4.82494 5.99994L0.749942 10.0749C0.67279 10.1521 0.61159 10.2437 0.569836 10.3445C0.528082 10.4453 0.506592 10.5533 0.506592 10.6624C0.506592 10.7715 0.528082 10.8796 0.569836 10.9804C0.61159 11.0812 0.67279 11.1728 0.749942 11.2499C0.827094 11.3271 0.918686 11.3883 1.01949 11.43C1.12029 11.4718 1.22833 11.4933 1.33744 11.4933C1.44655 11.4933 1.55459 11.4718 1.65539 11.43C1.7562 11.3883 1.84779 11.3271 1.92494 11.2499L5.99994 7.17494L10.0749 11.2499C10.1521 11.3271 10.2437 11.3883 10.3445 11.43C10.4453 11.4718 10.5533 11.4933 10.6624 11.4933C10.7715 11.4933 10.8796 11.4718 10.9804 11.43C11.0812 11.3883 11.1728 11.3271 11.2499 11.2499C11.3271 11.1728 11.3883 11.0812 11.43 10.9804C11.4718 10.8796 11.4933 10.7715 11.4933 10.6624C11.4933 10.5533 11.4718 10.4453 11.43 10.3445C11.3883 10.2437 11.3271 10.1521 11.2499 10.0749L7.17494 5.99994L11.2499 1.92494C11.5666 1.60828 11.5666 1.07494 11.2499 0.758276Z" fill="#8D8D8D"/>
</svg>
