<svg width="16" height="17" viewBox="0 0 16 17" fill="none" xmlns="http://www.w3.org/2000/svg">
<path d="M11.05 2.62997C8.93001 0.129975 5.18001 -0.180025 2.68001 1.92997C0.180013 4.04997 -0.129969 7.79997 1.98003 10.3C3.88003 12.54 7.10003 13.02 9.54003 11.56C9.82003 11.4 10.09 11.21 10.35 10.99C10.61 10.77 10.84 10.54 11.05 10.29C12.89 8.11998 12.95 4.86997 11.05 2.61997V2.62997ZM9.71001 10.24C7.63001 12 4.50001 11.74 2.74001 9.65997C0.980011 7.57997 1.24003 4.44997 3.32003 2.68997C5.40003 0.929974 8.53003 1.18998 10.29 3.26998C12.05 5.34998 11.79 8.47997 9.71001 10.24Z" fill="#3F3F3F"/>
<path d="M14.88 16.33C14.46 16.68 13.84 16.63 13.48 16.21L9.6 11.63C9.25 11.21 9.3 10.59 9.72 10.23C10.14 9.87003 10.76 9.93004 11.12 10.35L15 14.93C15.35 15.35 15.3 15.97 14.88 16.33Z" fill="#3F3F3F"/>
</svg>
