<svg width="11" height="21" viewBox="0 0 11 21" fill="none" xmlns="http://www.w3.org/2000/svg">
<path d="M3.34012 10.8811L10.2401 3.36658C10.5001 3.08343 10.6401 2.70226 10.6501 2.29931C10.6501 1.89636 10.5101 1.51519 10.2401 1.23204C9.97012 0.948881 9.63012 0.785522 9.26012 0.785522C8.89012 0.785522 8.54012 0.93799 8.28012 1.23204L0.400117 9.8138C-0.139883 10.4019 -0.139883 11.3603 0.400117 11.9483L8.27012 20.5301C8.81012 21.1182 9.69012 21.1182 10.2301 20.5301C10.4901 20.247 10.6301 19.8658 10.6401 19.4628C10.6401 19.0599 10.5001 18.6787 10.2301 18.3956L3.33012 10.8811H3.34012Z" fill="#F875AA"/>
</svg>
