<svg width="207" height="26" viewBox="0 0 207 26" fill="none" xmlns="http://www.w3.org/2000/svg">
<path d="M6.82 6.96831L0.03 7.01187L0 1.61015L19.82 1.49036L19.85 6.89207L13.08 6.93564L13.18 25.6347L6.92 25.6783L6.82 6.9792V6.96831Z" fill="#F875AA"/>
<path d="M27.2201 6.84917L20.4201 6.89273L20.3901 1.49101L40.2101 1.37122L40.2401 6.77293L33.4701 6.81649L33.5701 25.5156L27.3101 25.5591L27.2101 6.86006L27.2201 6.84917Z" fill="#F875AA"/>
<path d="M62.55 10.1383C62.58 15.6163 58.8 19.0468 52.76 19.0795L48.9001 19.1012L48.93 25.4069L42.67 25.4504L42.55 1.34964L52.67 1.28429C58.71 1.25162 62.52 4.62769 62.55 10.1383ZM56.23 10.1819C56.22 7.93842 54.92 6.64245 52.32 6.66423L48.84 6.68601L48.8801 13.7431L52.3601 13.7213C54.9501 13.7104 56.24 12.3927 56.23 10.1819Z" fill="#F875AA"/>
<path d="M65.1999 14.5698L65.1299 1.20708L71.3899 1.16351L71.4599 14.3193C71.4799 18.4468 73.0699 20.0913 75.6899 20.0804C78.2799 20.0695 79.8499 18.4033 79.8299 14.2757L79.7599 1.11995L85.9199 1.08728L85.9899 14.45C86.0299 21.6487 82.1899 25.6999 75.6499 25.7326C69.1099 25.7762 65.2299 21.7684 65.1899 14.5698H65.1999Z" fill="#F875AA"/>
<path d="M88.73 23.0001L90.76 17.9578C92.73 19.3517 95.51 20.2992 98.07 20.2883C100.66 20.2774 101.67 19.4715 101.66 18.3063C101.64 14.4837 89.07 17.3479 89.03 8.39585C89.01 4.09408 92.22 0.565534 98.8 0.521972C101.68 0.500191 104.65 1.20808 106.84 2.5694L104.94 7.6444C102.82 6.41376 100.73 5.81478 98.8 5.82567C96.18 5.83656 95.23 6.81672 95.24 8.01468C95.26 11.6957 107.8 8.86414 107.84 17.7508C107.86 21.9546 104.66 25.5485 98.08 25.592C94.44 25.6138 90.84 24.5683 88.74 23.0001H88.73Z" fill="#F875AA"/>
<path d="M131.68 0.804443L131.8 24.9052L125.54 24.9488L125.49 15.5503L116.95 15.6047L117 25.0033L110.74 25.0468L110.62 0.946021L116.88 0.902458L116.93 9.95251L125.47 9.89806L125.42 0.848006L131.68 0.804443Z" fill="#F875AA"/>
<path d="M140.73 9.98533L141.56 7.92702C142.37 8.50422 143.51 8.88539 144.55 8.88539C145.61 8.88539 146.02 8.54778 146.02 8.06859C146.02 6.50035 140.87 7.67653 140.85 4.01731C140.85 2.25304 142.15 0.815482 144.84 0.793701C146.02 0.793701 147.24 1.07686 148.13 1.63227L147.35 3.71237C146.48 3.21141 145.62 2.96092 144.84 2.97181C143.77 2.97181 143.38 3.37476 143.38 3.86484C143.38 5.36774 148.52 4.21334 148.54 7.85078C148.54 9.57149 147.24 11.0417 144.55 11.0635C143.06 11.0635 141.58 10.6497 140.73 9.99622V9.98533Z" fill="#FB929E"/>
<path d="M158.89 10.7582L158.84 5.53071L156.53 9.79981H155.39L153.05 5.70496L153.08 10.7908H150.71L150.66 0.945784H152.77L155.98 6.60887L159.06 0.902222H161.17L161.25 10.7582H158.9H158.89Z" fill="#FB929E"/>
<path d="M170.09 8.77662L166.26 8.7984L165.56 10.7151H162.95L166.9 0.837402H169.42L173.48 10.6607H170.81L170.09 8.76573V8.77662ZM169.33 6.7183L168.15 3.57093L167 6.72919H169.33V6.7183Z" fill="#FB929E"/>
<path d="M179.12 8.01365H177.72L177.73 10.6383H175.17L175.12 0.793207L179.26 0.771426C181.73 0.760536 183.29 2.14364 183.3 4.39798C183.3 5.84643 182.67 6.92459 181.54 7.52357L183.51 10.6165L180.77 10.6383L179.11 8.02454L179.12 8.01365ZM179.12 2.97132H177.7L177.71 5.86821H179.13C180.19 5.85732 180.72 5.31279 180.71 4.40887C180.71 3.49407 180.17 2.96043 179.11 2.97132H179.12Z" fill="#FB929E"/>
<path d="M187.48 2.92876L184.7 2.95054V0.739756L192.8 0.685303V2.89609L190.04 2.91787L190.08 10.5739H187.52L187.48 2.93965V2.92876Z" fill="#FB929E"/>
<path d="M143.33 17.2609L140.55 17.2827V15.0719L148.65 15.0175V17.2282L145.89 17.25L145.93 24.9061H143.37L143.33 17.2718V17.2609Z" fill="#FB929E"/>
<path d="M156.23 22.9226L152.4 22.9444L151.7 24.8611H149.09L153.04 14.9834H155.56L159.62 24.8067H156.95L156.23 22.9117V22.9226ZM155.47 20.8643L154.29 17.7169L153.14 20.8861H155.47V20.8643Z" fill="#FB929E"/>
<path d="M161.27 14.9408H163.83L163.88 24.7859H161.32L161.27 14.9408Z" fill="#FB929E"/>
<path d="M168.56 17.1077L165.78 17.1295V14.9187L173.88 14.8643V17.075L171.12 17.0968L171.16 24.7529H168.6L168.56 17.1186V17.1077Z" fill="#FB929E"/>
<path d="M175.62 20.3215L175.59 14.8544H178.15L178.18 20.2235C178.18 21.9115 178.84 22.5867 179.91 22.5759C180.97 22.5759 181.61 21.8897 181.61 20.2017L181.58 14.8218H184.1L184.13 20.2779C184.15 23.2184 182.58 24.8847 179.9 24.8955C177.22 24.9064 175.63 23.2729 175.62 20.3324V20.3215Z" fill="#FB929E"/>
<path d="M195.43 14.7345L195.48 24.6013H193.37L189.34 19.3848L189.37 24.6449H186.86L186.81 14.7998H188.92L192.95 20.0164L192.92 14.7563H195.43V14.7345Z" fill="#FB929E"/>
<path d="M204.31 19.3952H206.57L206.59 23.4682C205.55 24.2959 204.11 24.7424 202.79 24.7424C199.9 24.7642 197.78 22.6405 197.77 19.6456C197.75 16.6399 199.85 14.5053 202.79 14.4835C204.49 14.4835 205.86 15.0934 206.76 16.2587L205.14 17.8705C204.51 17.1299 203.8 16.7814 202.93 16.7814C201.38 16.7814 200.35 17.914 200.36 19.613C200.36 21.2792 201.41 22.4227 202.94 22.4118C203.42 22.4118 203.87 22.3029 204.32 22.0742V19.3734L204.31 19.3952Z" fill="#FB929E"/>
</svg>
