<?xml version="1.0" encoding="UTF-8"?>
<svg xmlns="http://www.w3.org/2000/svg" version="1.1" viewBox="0 0 453.54 255.12">
  <defs>
    <style>
      .cls-1 {
        fill: #ec1d24;
      }

      .cls-1, .cls-2, .cls-3 {
        fill-rule: evenodd;
      }

      .cls-2 {
        fill: #f4811f;
      }

      .cls-3 {
        fill: #007f5f;
      }
    </style>
  </defs>
  <!-- Generator: Adobe Illustrator 28.6.0, SVG Export Plug-In . SVG Version: 1.2.0 Build 709)  -->
  <g>
    <g id="_圖層_1" data-name="圖層_1">
      <g>
        <path class="cls-2" d="M291.78.1h-160.72v63.78h84.82C234.9,36.12,261.15,14.06,291.78.1"/>
        <path class="cls-1" d="M194.84,191.26h63.85v63.86h-63.85v-63.86ZM264.75,127.59c9.82-28.14,30.69-51.11,57.77-63.57V0c-60.92,16.74-108.45,65.8-123.03,127.59h65.26,0Z"/>
        <g>
          <path class="cls-3" d="M275.04,198.72c.87,0,1.35-.42,1.35-1.14s-.48-1.17-1.35-1.17h-1v2.31h1ZM274.04,202.88h-1.46v-7.74h2.67c1.5,0,2.62,1.06,2.62,2.43,0,1.05-.69,1.98-1.7,2.29l1.73,3.02h-1.67l-1.62-2.89h-.58v2.89h0ZM274.93,204.79c3.08,0,5.51-2.48,5.51-5.72s-2.43-5.7-5.51-5.7-5.51,2.46-5.51,5.7,2.43,5.72,5.51,5.72ZM274.93,191.96c3.91,0,7.07,3.2,7.07,7.11,0,3.89-3.18,7.1-7.07,7.13-3.89,0-7.01-3.22-7.01-7.13s3.12-7.11,7.01-7.11h0Z"/>
          <path class="cls-3" d="M174.22,137.22h-13.59v44.94h25.3v-9.66h-11.72v-35.28h0ZM258.35,182.16h25.3v-9.66h-11.72v-9.23h11.72v-8.43h-11.72v-7.62h11.72v-10.01h-25.3v44.94h0ZM190.24,182.16h25.3v-9.66h-11.72v-9.23h11.72v-8.43h-11.72v-7.62h11.72v-10.01h-25.3v44.94h0ZM131.03,182.16h25.3v-9.65h-11.72v-9.23h11.72v-8.43h-11.72v-7.62h11.72v-10.01h-25.3v44.94h0ZM310.7,137.23c-4.28,0-6.68.96-9.16,2.54v-2.54h-13.59v44.92h13.59v-30.59c0-1.87,1.52-3.39,3.39-3.39h.59c1.87,0,3.39,1.53,3.39,3.39v30.59h13.58v-30.9c0-9.58-4.34-14.03-11.79-14.03h0ZM254.73,137.16l-10.24,44.94h-15.1l-10.24-44.94h12.42l5.37,30.36,5.37-30.36h12.41,0Z"/>
        </g>
      </g>
    </g>
  </g>
</svg>