<?xml version="1.0" encoding="UTF-8"?>
<svg id="_圖層_1" data-name="圖層 1" xmlns="http://www.w3.org/2000/svg" version="1.1" xmlns:v="https://vecta.io/nano" viewBox="0 0 2055.4 125">
  <defs>
    <style>
      .cls-1 {
        fill: #241813;
      }

      .cls-1, .cls-2, .cls-3 {
        stroke-width: 0px;
      }

      .cls-2 {
        fill: #b32a25;
      }

      .cls-4 {
        font-family: NotoSansCJKjp-Bold-90ms-RKSJ-H, 'Noto Sans CJK JP';
        font-size: 123.8px;
        font-weight: 700;
        isolation: isolate;
      }

      .cls-4, .cls-3 {
        fill: #fff;
      }
    </style>
  </defs>
  <text class="cls-4" transform="translate(32.7 108.2) scale(1.1 1)"><tspan x="0" y="0">禁</tspan></text>
  <text class="cls-4" transform="translate(184.2 108.2) scale(1.1 1)"><tspan x="0" y="0">止</tspan></text>
  <text class="cls-4" transform="translate(338.8 108.2) scale(1.1 1)"><tspan x="0" y="0">酒</tspan></text>
  <text class="cls-4" transform="translate(487.6 108.2) scale(1.1 1)"><tspan x="0" y="0">駕</tspan></text>
  <text class="cls-4" transform="translate(636.1 108.2) scale(1.1 1)"><tspan x="0" y="0">　</tspan></text>
  <text class="cls-4" transform="translate(806 108.2) scale(1.1 1)"><tspan x="0" y="0">飲</tspan></text>
  <text class="cls-4" transform="translate(958.5 108.2) scale(1.1 1)"><tspan x="0" y="0">酒</tspan></text>
  <text class="cls-4" transform="translate(1118.1 108.2) scale(1.1 1)"><tspan x="0" y="0">過</tspan></text>
  <text class="cls-4" transform="translate(1272.7 108.2) scale(1.1 1)"><tspan x="0" y="0">量</tspan></text>
  <text class="cls-4" transform="translate(1426.1 108.2) scale(1.1 1)"><tspan x="0" y="0">有</tspan></text>
  <text class="cls-4" transform="translate(1583.7 108.2) scale(1.1 1)"><tspan x="0" y="0">害</tspan></text>
  <text class="cls-4" transform="translate(1741.4 108.2) scale(1.1 1)"><tspan x="0" y="0">健</tspan></text>
  <text class="cls-4" transform="translate(1899 108.2) scale(1.1 1)"><tspan x="0" y="0">康</tspan></text>
  <g>
    <path class="cls-3" d="M765,63.2c0,29.8-24.2,54-54,54s-54-24.2-54-54,24.2-54,54-54c29.8,0,54,24.2,54,54"/>
    <path class="cls-1" d="M741.1,27h-11c0-.1-11-.1-11-.1,0,0-2.8,8-3.7,12.3s-2.8,9.5-.5,14c2.4,4.5,6.6,6.9,10.1,9.4,3.6,2.5,3.8,2.7,3.9,6.1s0,17.9,0,20.1-.5,4.3-1.2,5.3-1.6,2-5.3,2.5c-3.7.5-4.8.7-5.1,1-.4.4,0,.9,0,.9h12.7l12.6-.2s.2-.3,0-.8c-.3-.4-.7-.5-2.1-.6-1.7,0-4.5-.3-6.1-1.1-1.5-.8-3.2-1.8-3.2-7l.2-20c.2-2,0-3.9,3.9-5.9s10-7.3,11.3-10.8c1.4-3.4-.5-11.3-1.9-15.8-1.4-4.4-3.3-9.3-3.3-9.3M724.9,91c0,2.2-1.8,4-4.1,4s-4.1-1.8-4.1-4,1.8-4,4.1-4,4.1,1.8,4.1,4M696.1,91c0,2.2-1.8,4-4.1,4s-4.1-1.8-4.1-4,1.8-4,4.1-4,4.1,1.8,4.1,4M682,86.7c.3-1.8.3-2,1-2.5.6-.5,2.3-.9,3.3-1.3,1-.5,1.2-1.2,2.4-2.3,0,0,0,0,0,0,.8-.9,4.6-3.7,7.6-4.6s6.9-.5,9.5-.3,3.9,1.3,5,2l4.8,3.3c.8.6,1.2.7,1.2.7,0,0,4.1.2,5.8,1.1,1.7.9,1.8,1.7,1.8,1.7,1.2,1.1,2.1,2.1,2.4,3.4.3,1.2.3,2.3,0,3.1-.4.9-1,1.1-1,1.1,0,0,.6-6.3-4.9-6.3-5.4,0-5.6,6-5.6,6h-18c.2-2.8-1.9-6.1-5.3-6.1-5,0-5.2,4.8-5.2,5.6h0c0,0-.5,0-.5,0h-3.3c-2,0-1.3-2.7-1.1-4.6M664.8,65.5v-.9c0-.4.5-.3.5-.3,0,0,0-.6.8-1.8.7-1.3,2-2.2,2-2.5s0-.8-.3-.9c-.2,0-.3-.9-.3-1.1s0-.2-1.1-.8c-1-.5-.4-.8.6-.8h1.6c0-.5.2-.5.6-.6.4,0,.8.3,1.4.3s3,.2,3.5,0c1.7-.5,2.5,0,4.4.4l3.6.4c.6.2,1.1.9,1.1,2.2s-.5,1.3-.5,1.3c0,0,0,1.2.5,3.1.4,1.9,1,3,1,3h2.7s.3,0,.9-2.1c.6-2.1.4-6.4.2-7.7-.2-1.2-.4-1.6-.7-2s-.6-.5-1-.4c-.4,0-.8.2-1-.5s1-.8,1-.8l1.1-.8s0,0,0,0l-.9-1.2c-.3.2-.7.3-.9.4-.2,0-.8-.5-.8-1.3s.2-1.1.7-1.1,1.6,1,1.3,1.6h0l1,1.4c.4-.2.8-.4,1.2-.5l-.5-.7c-.2.2-.4.2-.5.2-.2,0-.5-.3-.5-.9s0-.8.5-.8.9.6.9,1l.8,1c.8,0,1.4,0,1.8.2.7.4.3,1.6.2,2.3s-1.3,1-1.3,1c1.3.3,2,1,2.9,2.1,1.1,1.2,1.2,2.3,1.2,2.3,0,0,.9,0,2.9.5,2.1.7,3,2.2,3,2.2-2.4-1.2-4.4-1.5-6.7-.4-2.4,1.2-3.2,3.4-3.8,5.3s-1.3,2.3-3,2.4-9.9,0-9.9,0c0,0,.5-1.2.4-2.6,0-.7-.2-2.9-2.5-4.4-2.5-1.7-4.6-1.1-5.6-.8-1.1.4-1.9,1.1-3,2.6-1,1.5-1.9,1.9-1.9,1.9.3,0,.3-.4.3-.4M693.3,67.4c0-1.8,1.5-3.3,3.3-3.3h0c1.8,0,3.3,1.5,3.3,3.3s-1.5,3.3-3.3,3.3c-1.8,0-3.3-1.5-3.3-3.3M691.7,67.4c0,2.7,2.2,4.9,4.9,4.9s4.8-2.2,4.8-4.9h0c0-2.7-2.2-4.9-4.8-4.9s-4.9,2.2-4.9,4.9M668.2,67.4c0-1.8,1.5-3.3,3.3-3.3s3.3,1.5,3.3,3.3-1.5,3.3-3.3,3.3c-1.9,0-3.3-1.5-3.3-3.3M666.6,67.4c0,2.7,2.2,4.9,4.9,4.9s4.9-2.2,4.9-4.9-2.2-4.9-4.9-4.9-4.9,2.2-4.9,4.9"/>
    <path class="cls-2" d="M762.1,62.5c0,11.1-3.6,21.9-10.4,30.8l-71.1-71.1c8.5-6.5,19.2-10.4,30.8-10.4,28,0,50.7,22.7,50.7,50.7M660.6,62.5c0-13.5,5.3-25.8,13.8-34.8l71.7,71.7c-9.1,8.6-21.3,13.8-34.8,13.8-27.9,0-50.7-22.7-50.7-50.7M771.8,62.5c0-33.3-27.1-60.4-60.4-60.4s-60.4,27.1-60.4,60.4,27.1,60.4,60.4,60.4,60.4-27.1,60.4-60.4"/>
  </g>
</svg>