<?xml version="1.0" encoding="UTF-8"?>
<svg xmlns="http://www.w3.org/2000/svg" version="1.1" viewBox="0 0 453.54 255.12">
  <defs>
    <style>
      .cls-1 {
        fill-rule: evenodd;
      }

      .cls-1, .cls-2 {
        fill: #0079c4;
      }

      .cls-3 {
        fill: #1eaa39;
      }
    </style>
  </defs>
  <!-- Generator: Adobe Illustrator 28.6.0, SVG Export Plug-In . SVG Version: 1.2.0 Build 709)  -->
  <g>
    <g id="layer">
      <g>
        <rect class="cls-2" x="108.65" y="170.67" width="236.24" height="84.44"/>
        <path class="cls-1" d="M234.02,123.58l-4.95-12.6h-7.25s8.93,21.58,8.78,21.79c-.05.15-3.01,7.65-3.16,7.86.2.05,7.25,0,7.3-.05.05-.36,10.82-29.59,10.82-29.59h-6.94l-4.59,12.6Z"/>
        <path class="cls-1" d="M205.44,100.36c-2.3,0-4.18,1.89-4.18,4.18s1.84,4.18,4.18,4.18,4.18-1.89,4.18-4.18c0-2.35-1.89-4.18-4.18-4.18"/>
        <path class="cls-1" d="M161.56,131.74v-13.93c-.1-1.33-.87-6.79-7.5-7.09h-1.89c-6.84.15-7.7,1.58-7.7,1.58v5.46s2.09-1.63,5.05-1.68c2.91-.05,4.08.41,4.75,1.02.15.15.31.36.46.56.2.46.41.82.51,1.43,0,0-.05.31-.1.36-.05.05-.26.05-.26.05-.05,0-.2-.05-.26-.05-.15-.1-1.12-.66-4.9-.51-2.35.1-5,1.79-5.51,2.45-.66.77-2.25,1.94-2.25,5.92,0,1.33.51,2.96,1.63,4.9,1.12,1.94,4.64,2.5,4.75,2.5,1.79.05,3.72-.05,4.59-.31.92-.31,1.79-.92,2.04-1.12.15-.15.51-.1.51.05,0,.41.1.77.31,1.12.05.2.1.31.1.31h6.84c-.26-.31-.46-.51-.56-.77-.1-.51-.61-1.79-.61-2.25M154.62,128.83c-.46.41-1.12.46-4.13.46-.46,0-2.25-.66-2.25-2.65,0-3.67,3.78-3.32,4.85-3.32s2.14.41,2.14,1.12c0,.56.05,2.25.05,3.01s-.36,1.12-.66,1.38"/>
        <path class="cls-1" d="M301.47,131.74v-13.93c-.1-1.33-.82-6.79-7.5-7.09h-1.89c-6.89.15-7.7,1.58-7.7,1.58v5.46s2.09-1.63,5-1.68c2.91-.05,4.08.41,4.8,1.02.15.15.31.36.46.56.2.46.41.82.51,1.43,0,0-.05.31-.1.36s-.26.05-.26.05c-.05,0-.2-.05-.26-.05-.1-.1-1.12-.66-4.85-.51-2.4.1-5,1.79-5.56,2.45-.66.77-2.25,1.94-2.25,5.92,0,1.33.51,2.96,1.63,4.9,1.12,1.94,4.64,2.5,4.75,2.5,1.79.05,3.72-.05,4.59-.31.92-.31,1.79-.92,2.04-1.12.15-.15.51-.1.51.05,0,.41.15.77.31,1.12.1.2.15.31.15.31h6.84c-.26-.31-.46-.51-.61-.77-.1-.51-.61-1.79-.61-2.25M294.53,128.83c-.46.41-1.12.46-4.13.46-.46,0-2.25-.66-2.25-2.65,0-3.67,3.78-3.32,4.85-3.32s2.14.41,2.14,1.12v3.01c.05.77-.31,1.12-.61,1.38"/>
        <path class="cls-1" d="M190.29,110.67c-3.67,0-6.68,1.22-6.84,2.81h0c-.15-1.58-2.86-2.81-6.22-2.81-2.6,0-4.85.77-5.77,1.84v-1.48h-5.66c-.26,0-.31.1-.31.31v23.37h6.22v-15.46c0-1.28,1.48-2.3,3.37-2.3s3.37,1.02,3.37,2.3v15.46h6.38v-15.46c0-1.28,1.48-2.3,3.37-2.3s3.37,1.02,3.37,2.3v15.46h6.48v-17.35c-.31-4.59-4.08-6.68-7.76-6.68"/>
        <path class="cls-1" d="M311.42,112.97v-1.99h-6.28v23.67h6.22v-15.31c.66-.56,2.4-1.79,4.39-1.79,2.55,0,3.72.97,3.72.97v-6.89s-1.48-.87-3.32-.87c-1.38,0-3.62,1.28-4.75,2.19"/>
        <rect class="cls-2" x="202.23" y="110.98" width="6.33" height="23.67"/>
        <rect class="cls-2" x="213.3" y="100.82" width="6.28" height="33.83"/>
        <polygon class="cls-1" points="126.71 107.3 142.02 107.3 142.02 100.82 126.71 100.82 120.13 100.82 120.13 107.3 120.13 134.65 126.71 134.65 126.71 119.8 141.41 119.8 141.41 113.32 126.71 113.32 126.71 107.3"/>
        <path class="cls-1" d="M336.27,117.15v-6.17h-5.46v-8.88l-6.22,2.86v5.97h-3.47v6.17h3.47v10.31h0v.66h.05c.36,5.87,5.41,6.53,7.86,6.53s3.52-.66,3.52-.66v-5.87s-.56.46-2.86.46-2.3-3.16-2.3-3.16v-8.32h5.41v.1Z"/>
        <path class="cls-1" d="M263.1,111.18c-.66-.82-8.42-10.36-8.42-10.36h-6.84v33.88h6.84v-23.37s7.14,9.13,8.42,10.82c1.28-1.63,8.42-10.77,8.42-10.82v23.37h6.89v-33.88h-6.89s-7.76,9.54-8.42,10.36"/>
        <rect class="cls-3" x="108.65" width="236.24" height="75.11"/>
      </g>
    </g>
  </g>
</svg>