<?xml version="1.0" encoding="UTF-8"?>
<svg xmlns="http://www.w3.org/2000/svg" version="1.1" viewBox="0 0 453.54 255.12">
  <defs>
    <style>
      .cls-1 {
        fill: #fff;
      }

      .cls-2 {
        fill: #c8161d;
      }
    </style>
  </defs>
  <!-- Generator: Adobe Illustrator 28.6.0, SVG Export Plug-In . SVG Version: 1.2.0 Build 709)  -->
  <g>
    <g id="_圖層_1" data-name="圖層_1">
      <g id="_圖層_1-2" data-name="_圖層_1">
        <g>
          <path class="cls-2" d="M368.16,58.42c0-11.3-17.53-58.42-70.11-58.42s-71.27,40.9-71.27,40.9c0,0-18.7-40.9-71.27-40.9s-70.12,47.12-70.12,58.42-11.68,59.2,47.52,120.36c59.2,61.15,93.86,76.34,93.86,76.34,0,0,34.66-15.19,93.87-76.34,59.2-61.15,47.52-109.06,47.52-120.36h0Z"/>
          <path class="cls-1" d="M201.08,60.95c0-1.64-2.54-8.45-10.15-8.45s-10.31,5.91-10.31,5.91c0,0-2.7-5.91-10.31-5.91s-10.15,6.82-10.15,8.45-1.69,8.57,6.88,17.42c8.57,8.85,13.58,11.05,13.58,11.05,0,0,5.02-2.2,13.58-11.05s6.88-15.78,6.88-17.42Z"/>
          <path class="cls-1" d="M180.41,95.45h0c4.72,0,8.54,3.82,8.54,8.54v36.7c0,4.72-3.82,8.54-8.54,8.54h0c-4.72,0-8.54-3.82-8.54-8.54v-36.7c0-4.72,3.82-8.54,8.54-8.54Z"/>
          <path class="cls-1" d="M155.26,82.42c-4.71,0-8.54,3.83-8.54,8.54v15.23h-10.4v-15.23c0-4.71-3.83-8.54-8.54-8.54s-8.54,3.83-8.54,8.54v49.74c0,4.71,3.83,8.54,8.54,8.54s8.54-3.83,8.54-8.54v-15.04h10.4v15.04c0,4.71,3.83,8.54,8.54,8.54s8.54-3.83,8.54-8.54v-49.74c0-4.71-3.83-8.54-8.54-8.54Z"/>
          <path class="cls-1" d="M238.96,131.58h-6.73v-40.62c0-4.71-3.83-8.54-8.54-8.54s-8.54,3.83-8.54,8.54v47.55c0,.09,0,.18,0,.25,0,.09,0,.18,0,.25v.58c0,4.11,3.33,7.45,7.45,7.45h16.36c4.11,0,7.45-3.33,7.45-7.45v-.58c0-4.11-3.33-7.45-7.45-7.45h0Z"/>
          <rect class="cls-1" x="193.7" y="109.19" width="17.08" height="12.7" rx="6.34" ry="6.34"/>
          <g>
            <circle class="cls-1" cx="259.22" cy="85.46" r="8.54"/>
            <path class="cls-1" d="M341.27,121.88c0-.47-.05-.94-.14-1.38-.06-.75-.17-1.41-.21-1.71-1.96-12.65-11.92-22.27-23.93-22.27-10.68,0-19.73,7.62-22.99,18.2h-2.91v-24.23h7.42c4.11,0,7.45-3.33,7.45-7.45v-.58c0-4.11-3.33-7.45-7.45-7.45h-17.06c-4.11,0-7.45,3.33-7.45,7.45v.58c0,.09,0,.18,0,.25,0,.09,0,.18,0,.25v31.16h-6.26v-7.27c0-4.71-3.83-8.54-8.54-8.54s-8.54,3.83-8.54,8.54v31.04c0,4.71,3.83,8.54,8.54,8.54s8.54-3.83,8.54-8.54v-9.47h6.26v47.66c0,4.71,3.83,8.54,8.54,8.54s8.54-3.83,8.54-8.54v-47.66h2.92c.94,11.7,11.36,20.93,24.09,20.93,7.7,0,14.56-3.38,18.98-8.63,1.33-1.58.91-3.97-.91-4.95l-7.46-4.03c-1.24-.67-2.79-.47-3.78.54-1.8,1.83-4.29,2.97-7.06,2.97-4.4,0-8.13-2.87-9.43-6.84h25.65c3.95,0,7.15-3.2,7.15-7.15l.02.02ZM309.47,114.73c1.01-3.31,4.1-5.72,7.75-5.72s6.72,2.41,7.75,5.72h-15.5Z"/>
          </g>
        </g>
      </g>
    </g>
  </g>
</svg>