<?xml version="1.0" encoding="UTF-8"?>
<svg xmlns="http://www.w3.org/2000/svg" version="1.1" viewBox="0 0 453.54 255.12">
  <defs>
    <style>
      .cls-1 {
        fill: #141414;
      }

      .cls-2 {
        fill: #ffc400;
      }

      .cls-3 {
        fill: #fccf00;
      }
    </style>
  </defs>
  <!-- Generator: Adobe Illustrator 28.6.0, SVG Export Plug-In . SVG Version: 1.2.0 Build 709)  -->
  <g>
    <g id="_圖層_1" data-name="圖層_1">
      <g id="_ネコマーク_ロゴタイプ" data-name="ネコマーク_ロゴタイプ">
        <g id="_グループ_2477" data-name="グループ_2477">
          <g id="_グループ_2476" data-name="グループ_2476">
            <g id="_グループ_2475" data-name="グループ_2475">
              <path id="_パス_11927" data-name="パス_11927" class="cls-3" d="M51.03,127.55C51.03,42.85,128.93,0,227.26,0s175.26,42.84,175.26,127.55-76.92,126.58-175.26,127.55S51.03,212.26,51.03,127.55Z"/>
              <path id="_パス_11928" data-name="パス_11928" class="cls-1" d="M376.44,100.03l-3.63-14.78-.93-.34-63,24.03h-105.22v-1.04c1.41-1.62,2.55-3.47,3.38-5.45,2.31-6.34,3.43-13.06,3.32-19.81v-40.18h-4.37l-25.59,26.55h-40.17l-25.59-26.55h-4.37v40.18c-.14,7.19,1.14,14.33,3.78,21.02,4.1,9.01,9.23,11.56,9.23,11.56v1.04h-5.28l-13.61-14.12h-4.37v22.3c-.22,5.87,1.32,11.68,4.44,16.66,2.84,4.13,6.89,7.27,11.6,8.99,2.31.84,4.75,1.29,7.21,1.33v1.04h-17.38l-.74.74v7.88l1.15,1.43,16.97,8.9v12.57l-12.57,8.62-.48.94v8.12l.74.74h12.31c20.14-.21,36.36-16.59,36.36-36.73v-13.98l12.04,14.49-13.44,53.94.74.74h22.29l.99-.36,35.86-43.16h58.6l35.87,43.16.99.36h22.29l.74-.74-20.11-80.67,59.64-38.29.32-1.11Z"/>
              <path id="_パス_11929" data-name="パス_11929" class="cls-2" d="M168.95,93.55c-.92-1.52-.77-3.25,1.15-4.8,5.37-3.6,11.61-5.71,18.06-6.11,2.75-.21,4.39,1.09,4.55,3.59.16,2.4-.97,3.82-4.12,4.06-5.43.56-10.72,2.05-15.66,4.39-1.42.73-3.17.23-4-1.13Z"/>
              <path id="_パス_11930" data-name="パス_11930" class="cls-2" d="M151.66,93.55c.92-1.52.77-3.25-1.15-4.8-5.37-3.6-11.61-5.71-18.06-6.11-2.75-.21-4.39,1.09-4.56,3.59-.16,2.4.97,3.82,4.12,4.06,5.43.56,10.72,2.05,15.66,4.39,1.42.73,3.17.24,4-1.13Z"/>
              <path id="_パス_11931" data-name="パス_11931" class="cls-2" d="M139.66,133.83c-.75-1.18-.39-2.75.79-3.5.02-.01.04-.02.06-.04,3.96-2.66,8.56-4.21,13.32-4.5,2.03-.15,3.24.8,3.36,2.64.12,1.77-.72,2.82-3.04,3-4,.42-7.9,1.51-11.54,3.23-1.05.53-2.33.17-2.95-.83Z"/>
              <path id="_パス_11932" data-name="パス_11932" class="cls-2" d="M129.73,133.83c.75-1.18.39-2.75-.79-3.5-.02-.01-.04-.02-.06-.04-3.96-2.66-8.56-4.21-13.32-4.5-2.03-.15-3.24.8-3.36,2.64-.12,1.77.72,2.82,3.04,3,4,.42,7.9,1.51,11.54,3.23,1.05.53,2.33.17,2.95-.83Z"/>
            </g>
          </g>
        </g>
      </g>
    </g>
  </g>
</svg>