<svg xmlns="http://www.w3.org/2000/svg" width="18.284" height="16" viewBox="0 0 18.284 16">
  <path id="triangle-exclamation-solid" d="M9.178,32a1.426,1.426,0,0,1,1.232.707L18.125,45.85A1.428,1.428,0,0,1,16.893,48H1.464A1.428,1.428,0,0,1,.232,45.85L7.946,32.707A1.426,1.426,0,0,1,9.178,32Zm0,4.571a.855.855,0,0,0-.857.857v4a.857.857,0,0,0,1.714,0v-4A.855.855,0,0,0,9.178,36.571Zm1.143,8a1.143,1.143,0,1,0-1.143,1.143A1.143,1.143,0,0,0,10.321,44.571Z" transform="translate(-0.037 -32)" fill="#ff5539"/>
</svg>
