<svg xmlns="http://www.w3.org/2000/svg" width="31" height="35.139" viewBox="0 0 31 35.139">
  <path id="Path_1783" data-name="Path 1783" d="M23.4,18.176H15.907a6.8,6.8,0,0,1-2.354-.421,7.234,7.234,0,0,1-2.13-1.23,6.324,6.324,0,0,0-1.292-.82.764.764,0,0,0-1.015.364.764.764,0,0,0,.364,1.015,4.687,4.687,0,0,1,.972.619,8.753,8.753,0,0,0,2.574,1.483,8.317,8.317,0,0,0,2.88.515H23.4a2.513,2.513,0,0,0,2.51-2.51,2.475,2.475,0,0,0-.339-1.235,2.484,2.484,0,0,0,.951-3.731,2.495,2.495,0,0,0-.86-4.448,2.48,2.48,0,0,0,.248-1.069A2.512,2.512,0,0,0,23.4,4.2H15.907a8.328,8.328,0,0,0-2.88.514A8.818,8.818,0,0,0,10.453,6.2a4.672,4.672,0,0,1-.972.619.76.76,0,0,0-.364,1.014.765.765,0,0,0,.691.437.756.756,0,0,0,.325-.072,6.162,6.162,0,0,0,1.292-.822,7.338,7.338,0,0,1,2.129-1.229,6.817,6.817,0,0,1,2.354-.421H23.4a.985.985,0,1,1,0,1.969H19.982a.763.763,0,0,0,0,1.525h5.064a.985.985,0,1,1,0,1.969H19.982a.763.763,0,1,0,0,1.525H24.5a.984.984,0,0,1,0,1.967l-4.516,0a.763.763,0,1,0,0,1.525l3.407,0H23.4a.985.985,0,1,1,0,1.969M7.862,15.959V7.942a2.113,2.113,0,0,0-2.11-2.11H2.11A2.113,2.113,0,0,0,0,7.942v8.016a2.112,2.112,0,0,0,2.11,2.11H5.752a2.112,2.112,0,0,0,2.11-2.11m-6.335,0V7.942a.584.584,0,0,1,.584-.585H5.752a.585.585,0,0,1,.585.585v8.016a.585.585,0,0,1-.585.585H2.11a.584.584,0,0,1-.584-.585m24.8,5.824-1.005-.9a.763.763,0,0,0-1.077.062.765.765,0,0,0,.061,1.077l1.006.9a12.092,12.092,0,0,1,4.161,8.95,1.615,1.615,0,0,1-.567,1.2,2.179,2.179,0,0,1-1.464.538H9.221a1.9,1.9,0,0,1-2.027-1.742,11.43,11.43,0,0,1,1.075-4.833,12.661,12.661,0,0,1,3.086-4.116l1.469-1.31a.763.763,0,1,0-1.014-1.14l-1.47,1.311A14.157,14.157,0,0,0,6.885,26.4a12.942,12.942,0,0,0-1.218,5.474,3.423,3.423,0,0,0,3.554,3.268H27.443a3.689,3.689,0,0,0,2.483-.928A3.121,3.121,0,0,0,31,31.871a13.618,13.618,0,0,0-4.672-10.088M13.594,2.747a.763.763,0,0,0,1.3-.8l-.261-.427h7.394l-.176.291a.763.763,0,0,0,1.3.793l.883-1.451A.763.763,0,0,0,23.387,0H13.277a.763.763,0,0,0-.651,1.159Zm5.358,27.337a1.6,1.6,0,0,1-1.035.155,1.707,1.707,0,0,1-.762-.321.769.769,0,0,0-.565-.154.762.762,0,0,0-.37,1.358,3.21,3.21,0,0,0,1.447.621,3.316,3.316,0,0,0,.549.046,3.052,3.052,0,0,0,1.481-.373,2.2,2.2,0,0,0,.576-3.5,3.124,3.124,0,0,0-1.817-.963c-.705-.117-1.235-.622-1.156-1.1a.718.718,0,0,1,.31-.458,1.547,1.547,0,0,1,1.139-.216,1.7,1.7,0,0,1,.761.321.763.763,0,0,0,.933-1.208A3.252,3.252,0,0,0,19,23.673,2.665,2.665,0,0,0,15.8,25.6a2.241,2.241,0,0,0,.568,1.856,3.092,3.092,0,0,0,1.844,1,1.6,1.6,0,0,1,.932.478.682.682,0,0,1-.189,1.145" fill="#fff"/>
</svg>
