<svg id="Group_1003" data-name="Group 1003" xmlns="http://www.w3.org/2000/svg" xmlns:xlink="http://www.w3.org/1999/xlink" width="28.9" height="31.542" viewBox="0 0 28.9 31.542">
  <defs>
    <clipPath id="clip-path">
      <rect id="Rectangle_1194" data-name="Rectangle 1194" width="28.9" height="31.542" fill="none"/>
    </clipPath>
  </defs>
  <g id="Group_1002" data-name="Group 1002" clip-path="url(#clip-path)">
    <path id="Path_975" data-name="Path 975" d="M22.639,28.589a8.8,8.8,0,1,1,1.017-15.363V9.857H15.771A1.97,1.97,0,0,1,13.8,7.885V0H3.943A3.947,3.947,0,0,0,0,3.943V27.6a3.947,3.947,0,0,0,3.943,3.943H19.714a3.94,3.94,0,0,0,3.576-2.3ZM8.871,9.857H4.928a.986.986,0,1,1,0-1.971H8.871a.986.986,0,0,1,0,1.971m0-3.943H4.928a.986.986,0,0,1,0-1.971H8.871a.986.986,0,0,1,0,1.971" fill="#11948a"/>
    <path id="Path_976" data-name="Path 976" d="M8,0V7.885h7.885Z" transform="translate(7.771)" fill="#11948a"/>
    <path id="Path_977" data-name="Path 977" d="M13.622,14.592H12.311v1.78h1.311c.69,0,1.126-.3,1.126-.9s-.436-.883-1.126-.883m.8-2.391c0-.552-.4-.816-.954-.816H12.311v1.632h1.161c.552,0,.954-.264.954-.816m8.191,9.786L18.47,17.835a6.814,6.814,0,1,0-1.484,1.484l4.148,4.152a1.05,1.05,0,0,0,1.484-1.484M13.5,18.095H10.417a.169.169,0,0,1-.183-.185V9.843a.168.168,0,0,1,.183-.181h3.115c2.147,0,2.987.907,2.987,2.206a1.853,1.853,0,0,1-1.183,1.78,1.98,1.98,0,0,1,1.609,1.977c0,1.573-1.025,2.47-3.448,2.47" transform="translate(5.975 6.799)" fill="#ffad0a"/>
  </g>
</svg>
