<svg xmlns="http://www.w3.org/2000/svg" width="16.214" height="14.41" viewBox="0 0 16.214 14.41">
  <path id="edit-solid" d="M11.333,2.439l2.539,2.539a.275.275,0,0,1,0,.388L7.724,11.515l-2.612.29a.548.548,0,0,1-.605-.605L4.8,8.587l6.148-6.148a.275.275,0,0,1,.388,0Zm4.56-.645L14.52.421a1.1,1.1,0,0,0-1.554,0l-1,1a.275.275,0,0,0,0,.388l2.539,2.539a.275.275,0,0,0,.388,0l1-1A1.1,1.1,0,0,0,15.894,1.795ZM10.81,9.843v2.866H1.8V3.7H8.27a.346.346,0,0,0,.239-.1L9.636,2.476A.338.338,0,0,0,9.4,1.9H1.351A1.352,1.352,0,0,0,0,3.25v9.909A1.352,1.352,0,0,0,1.351,14.51H11.26a1.352,1.352,0,0,0,1.351-1.351V8.717a.338.338,0,0,0-.577-.239L10.908,9.6A.346.346,0,0,0,10.81,9.843Z" transform="translate(0 -0.1)" fill="#11948a"/>
</svg>
