<svg xmlns="http://www.w3.org/2000/svg" width="31.004" height="31.019" viewBox="0 0 31.004 31.019">
  <path id="Path_1781" data-name="Path 1781" d="M16.459,24.338a.786.786,0,0,0-.906.666h0c-.037.247-.066.5-.1.756a10.129,10.129,0,0,1-.228,1.414c-.048.176-.062.227-.482.194L13.4,27.253c-.134-.011-.3-.015-.474-.018-.5-.01-1.336-.027-1.369-.345a9.115,9.115,0,0,1,.013-1.428c.015-.257.03-.511.036-.76a.855.855,0,0,0-.581-.814,10.471,10.471,0,0,1-3.261-1.935.854.854,0,0,0-1-.114c-.216.124-.431.255-.648.386a13.656,13.656,0,0,1-1.251.7c-.27.136-.7-.618-.935-1.021-.085-.149-.162-.283-.231-.387s-.161-.227-.265-.363c-.245-.324-.818-1.079-.615-1.286A7.774,7.774,0,0,1,3.932,19c.213-.145.423-.291.619-.44a.846.846,0,0,0,.332-.943,10.712,10.712,0,0,1-.52-3.805.847.847,0,0,0-.569-.821c-.23-.091-.469-.175-.71-.26A9.045,9.045,0,0,1,1.773,12.2c-.258-.141.091-1.026.241-1.4.062-.158.118-.3.156-.419s.077-.268.119-.434c.106-.418.346-1.282.622-1.241A10.623,10.623,0,0,1,4.3,9.038c.247.07.492.141.733.2a.853.853,0,0,0,.933-.368A10.533,10.533,0,0,1,8.552,6.149.853.853,0,0,0,8.9,5.206c-.073-.238-.158-.48-.243-.724a8.832,8.832,0,0,1-.4-1.369C8.2,2.792,8.993,2.549,9.47,2.4c.169-.052.326-.1.451-.148l1.267-.478c.4-.149.429-.1.513.045a10.858,10.858,0,0,1,.606,1.3c.1.239.2.475.3.7a.83.83,0,0,0,.8.463,10.758,10.758,0,0,1,3.83.331.863.863,0,0,0,.933-.361c.139-.2.274-.418.411-.633A9.76,9.76,0,0,1,19.4,2.465c.2-.228.945.284,1.3.531.141.1.268.182.375.246s.244.133.395.211c.388.2,1.194.609,1.091.884a9.766,9.766,0,0,1-.634,1.282c-.125.222-.248.444-.361.666a.856.856,0,0,0,.14.993,10.763,10.763,0,0,1,2.125,3.2.836.836,0,0,0,.8.472c.249-.019.5-.047.76-.077a9.6,9.6,0,0,1,1.426-.088c.165.007.227.01.287.44l.186,1.342c.019.134.051.293.087.467.136.655.244,1.3-.046,1.4a10.208,10.208,0,0,1-1.407.3c-.252.043-.5.085-.748.135a.8.8,0,0,0-.63.965.85.85,0,0,0,1.016.682l.721-.144c.476-.092.952-.186,1.422-.3a1.911,1.911,0,0,0,1.454-2.315l-.36-2.591C28.6,9.783,27.971,9.111,26.836,9.1c-.511.006-1.027.054-1.54.1l-.188.017A12.247,12.247,0,0,0,23.333,6.55l.053-.1c.226-.434.451-.868.662-1.31a1.924,1.924,0,0,0-.872-2.617L20.916,1.18c-1.207-.717-2.166-.636-2.848.243-.324.417-.618.863-.91,1.306-.024.038-.048.075-.073.112a12.394,12.394,0,0,0-3.193-.277l-.07-.158c-.2-.447-.4-.894-.61-1.332a1.9,1.9,0,0,0-2.561-.9l-2.467.933C6.542,1.729,6.418,2.748,6.6,3.495c.124.5.285.995.445,1.487l.051.157A12.481,12.481,0,0,0,4.89,7.455l-.142-.037c-.467-.123-.934-.245-1.4-.351A1.934,1.934,0,0,0,.993,8.514l-.806,2.5c-.537,1.661.185,2.395.885,2.717.475.219.967.4,1.459.589.043.015.086.032.129.049a12.235,12.235,0,0,0,.434,3.179l-.079.06c-.386.291-.772.581-1.153.879a1.909,1.909,0,0,0-.389,2.733l1.451,2.191c.771,1.163,1.653,1.521,2.624,1.068a15.9,15.9,0,0,0,1.434-.8L7.11,23.6A12.288,12.288,0,0,0,9.9,25.256l0,.136c-.014.491-.029.983-.026,1.474a1.918,1.918,0,0,0,1.92,1.946l2.608.223c.141.011.276.018.4.018A1.839,1.839,0,0,0,16.867,27.6c.113-.51.18-1.031.245-1.536.031-.244.062-.488.1-.73a.878.878,0,0,0-.752-1m13.651.273a12.677,12.677,0,0,0-1.035-1.073c-.142-.137-.283-.273-.42-.41l-6.22-6.221c-.081-.08-.173-.162-.268-.247a1.9,1.9,0,0,1-.517-.59,2.145,2.145,0,0,1,.05-.788,4.947,4.947,0,0,0,.078-.623,7.393,7.393,0,0,0-3.785-6.694,7.428,7.428,0,0,0-4.436-.883l-.164.017a1.764,1.764,0,0,0-1.33.531c-.541.727.1,1.362.386,1.644L15.6,12.421l-.944,2.254-2.253.944-1.479-1.48c-.2-.2-.407-.424-.61-.645a11.463,11.463,0,0,0-1.4-1.355.992.992,0,0,0-1.031-.206c-.436.182-.7.69-.811,1.556a7.373,7.373,0,0,0,4.478,7.745,7.553,7.553,0,0,0,3.086.567,4.869,4.869,0,0,0,.714-.1,2.6,2.6,0,0,1,.643-.081c.057,0,.073.007.216.155l.071.073,6.833,6.835q.546.547,1.1,1.093a4.172,4.172,0,0,0,2.936,1.24,4.014,4.014,0,0,0,2.582-.948.862.862,0,0,0,.129-.107l0,0,.08-.079a.862.862,0,0,0,.123-.149,4.028,4.028,0,0,0,.05-5.122m-1.415,4.115a2.31,2.31,0,0,1-2.066.573,3.066,3.066,0,0,1-1.47-.962l-7.142-7.146c-.23-.235-.46-.468-.7-.693a1.785,1.785,0,0,0-1.305-.53,4.3,4.3,0,0,0-.7.071,5.77,5.77,0,0,1-5.064-1.717A5.679,5.679,0,0,1,8.9,15.91a5.621,5.621,0,0,1-.189-1.174c-.008-.14-.01-.28-.008-.419l2.9,2.9a.836.836,0,0,0,.885.2l2.837-1.183a1.454,1.454,0,0,0,.576-.314,1.422,1.422,0,0,0,.3-.545l1.194-2.863a.839.839,0,0,0-.2-.884L15.556,9.988c-.222-.223-.442-.456-.662-.69-.178-.19-.36-.383-.546-.573.1,0,.191,0,.286.006a5.645,5.645,0,0,1,2.522.7,5.7,5.7,0,0,1,2.878,5.785l-.041.238a2.157,2.157,0,0,0,.041,1.241,2.667,2.667,0,0,0,.711.918l7.547,7.54a3.353,3.353,0,0,1,.916,1.245,2.344,2.344,0,0,1-.513,2.323" fill="#666"/>
</svg>
