<svg xmlns="http://www.w3.org/2000/svg" width="34.133" height="44.843" viewBox="0 0 34.133 44.843">
  <g id="Group_876" data-name="Group 876" transform="translate(0 0)">
    <path id="Path_913" data-name="Path 913" d="M30.3,18.956a5.279,5.279,0,0,1,1.326-3.133,6.4,6.4,0,1,0-10.119,0,5.282,5.282,0,0,1,1.328,3.133,3.617,3.617,0,0,1-3.614,3.613H16.968A7.463,7.463,0,0,0,9.5,30.036a3.209,3.209,0,0,0,2.132,3.02v3.379a3.2,3.2,0,0,0,3.2,3.2H38.3a3.2,3.2,0,0,0,3.2-3.2V33.056a3.211,3.211,0,0,0,2.134-3.02,7.463,7.463,0,0,0-7.468-7.468H33.914A3.616,3.616,0,0,1,30.3,18.956m6.933,16.412H15.9V33.236H37.234Z" transform="translate(-9.502 -5.502)" fill="#fff"/>
    <path id="Path_914" data-name="Path 914" d="M39.417,31.455H12.508a2.246,2.246,0,0,1,0-4.491H39.417a2.246,2.246,0,1,1,0,4.491" transform="translate(-8.895 13.388)" fill="#ffad0a"/>
  </g>
</svg>
