<svg xmlns="http://www.w3.org/2000/svg" width="25.502" height="18.128" viewBox="0 0 25.502 18.128">
  <g id="Group_960" data-name="Group 960" transform="translate(-933.634 -2400.436)">
    <path id="history-solid" d="M17.455,12.719a4.728,4.728,0,0,1-7.694,3.69.457.457,0,0,1-.035-.679l.215-.215a.458.458,0,0,1,.608-.038,3.508,3.508,0,1,0-.224-5.305l.967.967a.3.3,0,0,1-.216.521H8.3a.3.3,0,0,1-.3-.3V8.584a.305.305,0,0,1,.521-.216l.941.941a4.727,4.727,0,0,1,7.993,3.409Zm-3.449,1.5.187-.241a.457.457,0,0,0-.08-.642l-.776-.6V10.745a.457.457,0,0,0-.457-.457h-.3a.457.457,0,0,0-.457.457v2.586l1.247.97A.458.458,0,0,0,14.006,14.22Z" transform="translate(941.681 2392.436)" fill="#11948a"/>
    <path id="edit-solid" d="M11.216,2.415l2.513,2.513a.272.272,0,0,1,0,.384L7.645,11.4l-2.585.287a.542.542,0,0,1-.6-.6L4.747,8.5l6.085-6.085a.272.272,0,0,1,.384,0Zm4.513-.638L14.37.418a1.09,1.09,0,0,0-1.538,0l-.986.986a.272.272,0,0,0,0,.384L14.359,4.3a.272.272,0,0,0,.384,0l.986-.986A1.09,1.09,0,0,0,15.729,1.777ZM10.7,9.742v2.836H1.783V3.663h6.4a.343.343,0,0,0,.237-.1L9.536,2.451A.334.334,0,0,0,9.3,1.88H1.337A1.338,1.338,0,0,0,0,3.217v9.807a1.338,1.338,0,0,0,1.337,1.337h9.807a1.338,1.338,0,0,0,1.337-1.337v-4.4a.335.335,0,0,0-.571-.237L10.8,9.505A.343.343,0,0,0,10.7,9.742Z" transform="translate(933.634 2404.203)" fill="#11948a"/>
  </g>
</svg>
