<svg id="Group_1013" data-name="Group 1013" xmlns="http://www.w3.org/2000/svg" xmlns:xlink="http://www.w3.org/1999/xlink" width="28.9" height="31.542" viewBox="0 0 28.9 31.542">
  <defs>
    <clipPath id="clip-path">
      <rect id="Rectangle_1193" data-name="Rectangle 1193" width="28.9" height="31.542" fill="#fff"/>
    </clipPath>
  </defs>
  <g id="Group_1000" data-name="Group 1000" clip-path="url(#clip-path)">
    <path id="Path_974" data-name="Path 974" d="M18.941,29.4a8.786,8.786,0,1,1,4.715-16.177V9.857H15.771A1.97,1.97,0,0,1,13.8,7.885V0H3.943A3.947,3.947,0,0,0,0,3.943V27.6a3.947,3.947,0,0,0,3.943,3.943H19.714a3.94,3.94,0,0,0,3.576-2.3l-.649-.651a8.718,8.718,0,0,1-3.7.814M8.871,9.857H4.928a.986.986,0,1,1,0-1.971H8.871a.986.986,0,1,1,0,1.971m0-3.943H4.928a.986.986,0,0,1,0-1.971H8.871a.986.986,0,1,1,0,1.971M15.771,0V7.885h7.885ZM19.6,21.391H18.286v1.78H19.6c.69,0,1.126-.3,1.126-.9s-.436-.883-1.126-.883M20.4,19c0-.552-.4-.816-.954-.816H18.286v1.632h1.161c.552,0,.954-.264.954-.816m8.191,9.786-4.148-4.152a6.814,6.814,0,1,0-1.484,1.484l4.148,4.152a1.05,1.05,0,1,0,1.484-1.484m-9.121-3.891H16.392a.169.169,0,0,1-.183-.185V16.642a.168.168,0,0,1,.183-.181h3.115c2.147,0,2.987.907,2.987,2.206a1.853,1.853,0,0,1-1.183,1.78,1.98,1.98,0,0,1,1.609,1.977c0,1.573-1.025,2.47-3.448,2.47" fill="#fff"/>
  </g>
</svg>
