<svg xmlns="http://www.w3.org/2000/svg" width="23.46" height="28.982" viewBox="0 0 23.46 28.982">
  <path id="Path_1778" data-name="Path 1778" d="M18.331,0H5.129A5.135,5.135,0,0,0,0,5.13V23.853a5.135,5.135,0,0,0,5.129,5.129h13.2a5.135,5.135,0,0,0,5.129-5.129V5.13A5.135,5.135,0,0,0,18.331,0m3.441,23.853a3.444,3.444,0,0,1-3.441,3.441H5.129a3.444,3.444,0,0,1-3.441-3.441V5.13A3.445,3.445,0,0,1,5.129,1.688h9.385V7.426a.845.845,0,0,0,.844.844h6.413Zm0-17.271H16.2V1.688h2.128A3.444,3.444,0,0,1,21.772,5.13Zm-11.451-.29H5.438a.844.844,0,1,0,0,1.688h4.883a.844.844,0,0,0,0-1.688m0,4.381H5.438a.844.844,0,1,0,0,1.688h4.883a.844.844,0,0,0,0-1.688" fill="#fff"/>
</svg>
