<svg xmlns="http://www.w3.org/2000/svg" width="38.004" height="30.217" viewBox="0 0 38.004 30.217">
  <path id="Path_1780" data-name="Path 1780" d="M8.519,24.389a.8.8,0,0,0-.159-.772.756.756,0,0,0-.724-.249l-1.394.266.082-2.489a.719.719,0,0,0-.718-.754.736.736,0,0,0-.8.73L4.7,24.54a.721.721,0,0,0,.252.574.812.812,0,0,0,.676.174l2.352-.448a.689.689,0,0,0,.54-.451M32.426,15.2l.01-.02A3.531,3.531,0,1,0,27.7,16.785a3.515,3.515,0,0,0,1.556.364,3.586,3.586,0,0,0,3.172-1.95m-4.019.25a2.043,2.043,0,0,1-.969-2.686,2.053,2.053,0,0,1,1.848-1.155,1.977,1.977,0,0,1,1.84,1.254,2.085,2.085,0,0,1-.023,1.6,2.045,2.045,0,0,1-2.7.982m-4.294,1.915h-4.46a6.65,6.65,0,0,0-3.691-1.626l-.623-.133c-.107-.023-.251-.044-.411-.064a2.392,2.392,0,0,1-.977-.258,1.859,1.859,0,0,1-.2-.485c-.036-.113-.071-.221-.108-.309l-.118-.282a5.88,5.88,0,0,0,1.836-2.319,5.4,5.4,0,0,0,.239-.707,5.037,5.037,0,0,1,.164-.514A2.7,2.7,0,0,1,16,10.237a3.1,3.1,0,0,0,.33-.621,1.331,1.331,0,0,0-.3-1.349c.025-.326.041-.661.043-.962l.006-.149C16.134,3.213,14.787.725,12.288.15A8.087,8.087,0,0,0,7.972.531a3.622,3.622,0,0,0-1.83,1.478c-.094.127-.191.25-.289.374a6.533,6.533,0,0,0-.71,1.03c-.761,1.464-.468,3.2-.194,4.631a1.673,1.673,0,0,0-.32,1.38,3.207,3.207,0,0,0,.486,1.022,1.981,1.981,0,0,1,.205.544c.031.115.064.232.1.349a6.175,6.175,0,0,0,2.05,2.875l-.3.72c-.141.339-.156.355-.378.417-.676.19-1.388.336-2.077.478-.352.072-.7.145-1.051.222A4.527,4.527,0,0,0,.683,18.234a5.924,5.924,0,0,0-.566,2.882L.073,22.757C.036,24.04,0,25.323,0,26.614c0,1.211,0,2.717,1.533,3.377a4.278,4.278,0,0,0,1.824.214c.139,0,.276-.008.408-.008h6.24l.089-.007c.175.007.359.006.608.007H19.76c.164,0,.334,0,.5.01s.362.01.548.01c1.07,0,2.215-.172,2.64-1.541.358-1.154.682-2.319,1.006-3.483q.24-.863.483-1.722l.876-3.052a2.63,2.63,0,0,0,.081-1.842,1.989,1.989,0,0,0-1.786-1.213m-17.749-13a4.251,4.251,0,0,1,.642-1.023c.093-.119.184-.248.276-.379a2.817,2.817,0,0,1,.748-.825,5.96,5.96,0,0,1,2.819-.628c.191,0,.374.007.545.022a3.152,3.152,0,0,1,2.79,2.54c.024.082.046.166.067.251l-.067-.008a.877.877,0,0,0-.592.2C12.036,5.907,9.446,4.307,8.4,3.553a.7.7,0,0,0-.643-.087.788.788,0,0,0-.5.516A6.977,6.977,0,0,1,6.191,6.294a4.132,4.132,0,0,1,.173-1.925m1.014,7.567a6.013,6.013,0,0,1-.613-1.462l-.1-.3a2.634,2.634,0,0,0-.278-.529c-.287-.463-.35-.64-.257-.7l.075-.066A.753.753,0,0,0,6.5,8.124l0-.017A6.428,6.428,0,0,0,8.4,5.356C9.653,6.1,12,7.164,13.944,6.1a5.391,5.391,0,0,1,.611,1.162c-.007.532-.034,1-.08,1.433a.722.722,0,0,0,.226.582c.016.017.033.031.05.046-.085.175-.189.375-.22.429a2.51,2.51,0,0,0-.273.72,5.069,5.069,0,0,1-.822,1.73,3.691,3.691,0,0,1-3.092,1.571,3.8,3.8,0,0,1-2.966-1.839m.739,16.748-3.98,0c-.508.006-1.015.01-1.52,0a1.07,1.07,0,0,1-1.033-.648,2.639,2.639,0,0,1-.08-.974c0-.115.008-.227.008-.335,0-1.242.035-2.484.069-3.727l.043-1.846a4.8,4.8,0,0,1,.3-2.038,3.2,3.2,0,0,1,2.489-1.683c.324-.073.652-.139.981-.206.669-.133,1.361-.273,2.025-.469.759-.224,1.123-1,1.406-1.776a4.742,4.742,0,0,0,3.357-.04c.129.32.261.638.407.95a1.873,1.873,0,0,0,1.545.995l.173.038c.3.066.6.124.907.182.4.077.816.156,1.214.256l-3.088-.005c-.3-.006-.608-.011-.909.013a2.2,2.2,0,0,0-1.882,1.814l-2.33,8.143a2.885,2.885,0,0,0-.106,1.356m16.22-8.594L22.1,27.9c-.163.576-.249.764-.632.787-.293.018-.59.011-.887.005l-6.313-.006c-.465,0-.932.007-1.4.015-.913.014-1.857.028-2.773-.015a.5.5,0,0,1-.411-.168.87.87,0,0,1-.03-.7l2.189-7.647c.026-.094.051-.2.077-.3.092-.38.2-.811.448-.94a1.073,1.073,0,0,1,.453-.07c.11,0,.224.006.328.011s.211.011.3.011l5.7-.011a.435.435,0,0,0,.23.011h4.677a.477.477,0,0,1,.37.14c.151.214-.009.774-.095,1.075m13.449-7.552a1.941,1.941,0,0,0-.1-1.9c-.042-.1-.083-.194-.118-.284s-.063-.177-.094-.272c-.183-.545-.433-1.29-1.192-1.471a2.784,2.784,0,0,0-1.533.252,7.744,7.744,0,0,0-1.116-1.066A2.686,2.686,0,0,0,33.786,6.2c-.244-.722-1.019-.936-1.584-1.093-.107-.029-.21-.057-.305-.088l-.255-.089a1.8,1.8,0,0,0-1.924.08A2.9,2.9,0,0,0,29.023,6.3a7.76,7.76,0,0,0-1.535.21A2.729,2.729,0,0,0,26.4,5.427a1.942,1.942,0,0,0-1.875.512c-.087.063-.171.123-.253.178s-.157.1-.242.152c-.493.3-1.168.715-1.16,1.506a2.772,2.772,0,0,0,.583,1.413,7.8,7.8,0,0,0-.8,1.351,2.771,2.771,0,0,0-1.532.172,1.878,1.878,0,0,0-.754,1.744c0,.1-.009.195-.017.285s-.022.2-.036.309a1.948,1.948,0,0,0,.411,1.85,2.738,2.738,0,0,0,1.549.457c.142.013.278.025.4.043a.786.786,0,0,0,.729-.287.8.8,0,0,0,.132-.771.673.673,0,0,0-.546-.419c-.128-.02-.278-.03-.433-.041a2.447,2.447,0,0,1-.727-.117c-.091-.044-.062-.276-.017-.552.015-.1.031-.195.038-.282s.008-.17.009-.275a2.32,2.32,0,0,1,.052-.609,2.665,2.665,0,0,1,.76.008c.156.015.306.029.436.032a.757.757,0,0,0,.727-.523,6.131,6.131,0,0,1,1.09-1.834.767.767,0,0,0,.1-.893c-.065-.113-.15-.237-.238-.366a2.4,2.4,0,0,1-.358-.633c.027-.088.322-.253.448-.323.092-.052.178-.1.248-.148s.141-.1.225-.166a1.928,1.928,0,0,1,.518-.331,2.3,2.3,0,0,1,.43.569c.083.133.162.258.231.349a.763.763,0,0,0,.844.308,6.26,6.26,0,0,1,2.185-.3.767.767,0,0,0,.729-.518c.045-.114.088-.257.132-.408a2.586,2.586,0,0,1,.246-.653,1.555,1.555,0,0,1,.558.157c.091.037.173.07.24.092s.177.05.283.075c.144.034.527.125.579.21a2.258,2.258,0,0,1-.172.7c-.052.148-.1.29-.131.414a.769.769,0,0,0,.33.835,6.106,6.106,0,0,1,1.533,1.455.763.763,0,0,0,.841.31c.126-.038.267-.093.413-.15a2.518,2.518,0,0,1,.71-.21c.087.045.189.394.232.542.031.105.059.2.09.282s.065.154.106.243c.058.123.211.452.17.542a2.573,2.573,0,0,1-.69.322c-.146.054-.287.1-.406.159a.742.742,0,0,0-.406.7,6.4,6.4,0,0,1-.187,2.2.768.768,0,0,0,.325.835c.1.071.234.145.372.221a2.275,2.275,0,0,1,.586.4c.015.1-.193.394-.282.519-.061.087-.118.167-.158.236s-.088.162-.135.257a1.743,1.743,0,0,1-.3.485,2.262,2.262,0,0,1-.651-.328c-.132-.082-.259-.16-.37-.216a.766.766,0,0,0-.89.122A6.358,6.358,0,0,1,31.41,18.85a.743.743,0,0,0-.411.7c.009.125.032.271.057.425a2.345,2.345,0,0,1,.048.731c-.026.1-.373.123-.559.136-.1.007-.2.013-.278.025s-.174.031-.277.054a1.768,1.768,0,0,1-.579.073,2.848,2.848,0,0,1-.164-.754c-.021-.154-.042-.3-.069-.436a.7.7,0,0,0-.341-.484.743.743,0,0,0-.514-.074.77.77,0,0,0-.615.912c.025.121.044.258.065.4a2.8,2.8,0,0,0,.521,1.517,1.371,1.371,0,0,0,1.072.426,4.528,4.528,0,0,0,.8-.092c.1-.018.2-.036.288-.049s.2-.022.3-.032a1.921,1.921,0,0,0,1.712-.823,2.677,2.677,0,0,0,.1-1.558,7.7,7.7,0,0,0,1.29-.86,2.842,2.842,0,0,0,1.412.512c.815-.018,1.207-.74,1.493-1.266.049-.089.1-.176.143-.255s.1-.165.158-.251a1.912,1.912,0,0,0,.411-1.857,2.687,2.687,0,0,0-1.145-1.046,7.755,7.755,0,0,0,.135-1.546,2.68,2.68,0,0,0,1.322-.841" fill="#fff"/>
</svg>
