<svg xmlns="http://www.w3.org/2000/svg" width="29.622" height="24.625" viewBox="0 0 29.622 24.625">
  <path id="Path_1779" data-name="Path 1779" d="M19.073,12.689H6.357a.807.807,0,1,0,0,1.613H19.073a.807.807,0,1,0,0-1.613m-6.358,4.226H6.357a.806.806,0,1,0,0,1.613h6.358a.806.806,0,1,0,0-1.613M23.266,8.489H6.357a.807.807,0,1,0,0,1.614H23.266a.807.807,0,0,0,0-1.614m1.443-6.344H23.316V.807a.807.807,0,1,0-1.613,0V2.145H7.919V.807a.807.807,0,1,0-1.613,0V2.145H4.914A4.919,4.919,0,0,0,0,7.058V19.712a4.919,4.919,0,0,0,4.914,4.913H24.709a4.919,4.919,0,0,0,4.913-4.913V7.058a4.919,4.919,0,0,0-4.913-4.913m3.3,17.567a3.3,3.3,0,0,1-3.3,3.3H4.914a3.3,3.3,0,0,1-3.3-3.3V7.058a3.3,3.3,0,0,1,3.3-3.3H6.306V4.786a.807.807,0,1,0,1.613,0V3.758H21.7V4.786a.807.807,0,1,0,1.613,0V3.758h1.393a3.3,3.3,0,0,1,3.3,3.3Z" fill="#666"/>
</svg>
