<svg xmlns="http://www.w3.org/2000/svg" xmlns:xlink="http://www.w3.org/1999/xlink" width="16.688" height="22.25" viewBox="0 0 16.688 22.25">
  <defs>
    <clipPath id="clip-path">
      <rect id="Rectangle_1202" data-name="Rectangle 1202" width="16.688" height="22.25" fill="none"/>
    </clipPath>
  </defs>
  <g id="Group_1015" data-name="Group 1015" transform="translate(0)">
    <g id="Group_1014" data-name="Group 1014" transform="translate(0)" clip-path="url(#clip-path)">
      <path id="Path_978" data-name="Path 978" d="M9.734,5.562V0H2.781A2.784,2.784,0,0,0,0,2.781V19.469A2.784,2.784,0,0,0,2.781,22.25H13.906a2.784,2.784,0,0,0,2.781-2.781V6.953H11.125A1.389,1.389,0,0,1,9.734,5.562m-1.48,11.6H5.877a2.041,2.041,0,0,1-2.04-2.04v-2.72h-.68a.681.681,0,0,1-.482-1.162l1.36-1.36a.681.681,0,0,1,.963,0l1.36,1.36a.682.682,0,0,1-.482,1.162h-.68v2.72a.679.679,0,0,0,.68.68h2.38a.68.68,0,1,1,0,1.36m5.1-4.76v2.72h.68a.682.682,0,0,1,.482,1.162l-1.36,1.36a.681.681,0,0,1-.963,0l-1.36-1.36a.682.682,0,0,1,.482-1.162h.68v-2.72a.679.679,0,0,0-.68-.68H8.935a.68.68,0,1,1,0-1.36h2.378a2.041,2.041,0,0,1,2.04,2.04M11.125,0V5.562h5.562Z" fill="#11948a"/>
    </g>
  </g>
</svg>
