<svg xmlns="http://www.w3.org/2000/svg" width="16.38" height="16.38" viewBox="0 0 16.38 16.38">
  <path id="code-compare-solid" d="M10.238,15.612a.766.766,0,0,1-1.28.569L6.4,13.878a.768.768,0,0,1,0-1.139l2.559-2.3a.766.766,0,0,1,1.28.569v1.28h.512A2.049,2.049,0,0,0,12.8,10.238V4.9a2.559,2.559,0,1,1,2.047,0v5.333a4.1,4.1,0,0,1-4.095,4.095h-.512ZM14.588,2.559a.768.768,0,1,0-.768.768A.768.768,0,0,0,14.588,2.559ZM6.142.768A.766.766,0,0,1,7.422.2L9.982,2.5a.768.768,0,0,1,0,1.139l-2.559,2.3a.766.766,0,0,1-1.28-.569V4.1H5.631A2.049,2.049,0,0,0,3.583,6.142v5.333a2.559,2.559,0,1,1-2.047,0V6.142A4.1,4.1,0,0,1,5.631,2.048h.512ZM1.792,13.821a.768.768,0,1,0,.768-.768A.768.768,0,0,0,1.792,13.821Z" fill="#11948a"/>
</svg>
