<svg xmlns="http://www.w3.org/2000/svg" width="33.45" height="34.294" viewBox="0 0 33.45 34.294">
  <path id="Path_1782" data-name="Path 1782" d="M13.573,6.326a4.432,4.432,0,0,0-3.589,4.236c0,.023,0,.046,0,.07s0,.048,0,.071a4.446,4.446,0,0,0,2.854,4.033,4.234,4.234,0,0,0,1.5.271,4.377,4.377,0,1,0-.764-8.681m.789,7.182a2.876,2.876,0,1,1,0-5.751,2.9,2.9,0,0,1,2.874,2.875,2.914,2.914,0,0,1-2.875,2.876m-5.319,4.6c.488-.066.968-.141,1.455-.229l.316-.058a16.4,16.4,0,0,1,4.637-.414c.911.09,1.84.276,2.739.453.359.071.719.143,1.077.209a.768.768,0,0,0,.722-.255.8.8,0,0,0,.153-.768A.681.681,0,0,0,19.6,16.6l-1.03-.193c-.726-.138-1.452-.275-2.18-.391a17.018,17.018,0,0,0-5.86.325c-.211.039-.425.072-.64.106-1.254.2-2.675.418-3.471,1.777A5.48,5.48,0,0,0,5.959,21.2c.006.214.012.424.012.627V24.1a12.559,12.559,0,0,1-1.93-2.052A12.867,12.867,0,0,1,21.508,3.663,13.008,13.008,0,0,1,27.177,15.53a.688.688,0,0,0,.657.762.765.765,0,0,0,.845-.706A14.369,14.369,0,0,0,1.215,8.564a14.439,14.439,0,0,0,.712,13,14.282,14.282,0,0,0,4.241,4.57.718.718,0,0,0,.265.184,14.592,14.592,0,0,0,7.928,2.411h0a.752.752,0,0,0,0-1.5,13.086,13.086,0,0,1-3.256-.448.693.693,0,0,0,.318-.623l-.22-4.311a.735.735,0,0,0-.4-.632.8.8,0,0,0-.786.033.694.694,0,0,0-.314.637L9.925,26.2a.756.756,0,0,0,.063.246A13.09,13.09,0,0,1,7.472,25.2q0-.738-.013-1.479c-.016-1.252-.032-2.546.017-3.807a1.835,1.835,0,0,1,1.568-1.808m23.978,8.8a1.849,1.849,0,0,0,.365-1.768c-.016-.1-.029-.2-.038-.289s-.015-.179-.02-.275a1.851,1.851,0,0,0-.669-1.608,2.479,2.479,0,0,0-1.518-.184,7.527,7.527,0,0,0-.784-1.283,2.71,2.71,0,0,0,.527-1.29c.027-.794-.654-1.2-1.152-1.492-.084-.05-.167-.1-.242-.148s-.15-.1-.228-.156a1.8,1.8,0,0,0-1.755-.453A2.59,2.59,0,0,0,26.491,19,7.294,7.294,0,0,0,25,18.814a2.785,2.785,0,0,0-.64-1.179,1.723,1.723,0,0,0-1.9-.074c-.089.034-.176.067-.257.094s-.177.054-.272.082c-.52.151-1.233.357-1.461,1.037a2.516,2.516,0,0,0,.161,1.506,7.539,7.539,0,0,0-1.078,1.049,2.746,2.746,0,0,0-1.391-.224c-.758.151-1,.883-1.168,1.417-.029.088-.056.175-.086.255s-.07.179-.11.274a1.928,1.928,0,0,0-.127,1.75,2.406,2.406,0,0,0,1.3.849,7.3,7.3,0,0,0,.152,1.526,2.777,2.777,0,0,0-1.01.9,1.742,1.742,0,0,0,.366,1.864c.053.08.1.157.151.232s.093.159.141.246c.266.474.629,1.123,1.354,1.18a2.59,2.59,0,0,0,1.407-.494,7.2,7.2,0,0,0,1.267.816,2.555,2.555,0,0,0,.123,1.465,1.8,1.8,0,0,0,1.62.758c.1.007.19.016.278.026s.188.028.29.046a4.469,4.469,0,0,0,.736.081,1.351,1.351,0,0,0,1-.362,2.443,2.443,0,0,0,.524-1.447,7.391,7.391,0,0,0,1.451-.493l.574.516a.48.48,0,0,0,.041.035.745.745,0,0,0,.075.055c1.077.708,2.1-.442,2.711-1.128.081-.091.156-.178.227-.251.887-.945.19-1.816-.359-2.422a7.3,7.3,0,0,0,.52-1.43,2.548,2.548,0,0,0,1.417-.454m-2.167-.893a.705.705,0,0,0-.544.542,6.391,6.391,0,0,1-.275,1.032l-.082-.1.03.234a5.992,5.992,0,0,1-.389.813.725.725,0,0,0,.1.847l.541.631.053.062.016.121.036-.062a.766.766,0,0,0,.059.063.313.313,0,0,1-.055.087,3.69,3.69,0,0,1-.436.435c-.088.079-.175.156-.255.235-.04.04-.084.089-.133.144s-.2.224-.246.263l-.1-.09.1-.055-.2-.026-.652-.587a.734.734,0,0,0-.846-.1,6.051,6.051,0,0,1-.856.382l-.074-.01v0l0,0-.084-.01.05.045-.021.02a6.34,6.34,0,0,1-1.013.242.7.7,0,0,0-.549.54c-.023.12-.038.265-.053.418a4.55,4.55,0,0,1-.065.485l-.131.132.1-.016a.488.488,0,0,1-.045.1c-.067.059-.433-.015-.552-.038-.094-.019-.182-.036-.253-.045s-.168-.015-.271-.019a1.934,1.934,0,0,1-.563-.072.778.778,0,0,1-.017-.142l.057.023-.058-.1a4.567,4.567,0,0,1,.051-.512c.021-.151.041-.3.049-.427a.7.7,0,0,0-.4-.663A6.266,6.266,0,0,1,22,30.386l-.038-.065,0,0-.047-.073,0,.066-.04-.006a5.93,5.93,0,0,1-.771-.6.731.731,0,0,0-.845-.11c-.111.058-.23.134-.353.213-.1.066-.216.136-.319.2l-.322-.043.143.132a.619.619,0,0,1-.107.035c-.092-.034-.25-.339-.317-.469-.044-.085-.085-.164-.123-.227s-.089-.134-.147-.213a1.929,1.929,0,0,1-.293-.494.515.515,0,0,1,.088-.092l.025.09.065-.161c.115-.083.257-.166.383-.24s.249-.147.347-.216a.734.734,0,0,0,.3-.8,6.107,6.107,0,0,1-.176-.855l.111-.273-.131.093a6.175,6.175,0,0,1-.013-1.082.705.705,0,0,0-.392-.665c-.117-.051-.25-.1-.386-.149s-.3-.106-.424-.166l-.147-.253-.012.169A.718.718,0,0,1,18,24.085c-.058-.045,0-.2.115-.46.037-.082.072-.16.1-.234s.052-.165.082-.268a1.868,1.868,0,0,1,.232-.594c.027,0,.081,0,.127.012l-.194.268.47-.19c.094.032.191.069.283.1.14.053.274.1.4.141a.721.721,0,0,0,.8-.3,5.827,5.827,0,0,1,1.451-1.406.729.729,0,0,0,.309-.793c-.032-.122-.078-.255-.126-.394-.037-.107-.077-.22-.109-.328l.153-.379-.209.144a.73.73,0,0,1-.011-.116c.051-.085.4-.172.547-.209.1-.025.2-.05.273-.075s.145-.055.231-.091a1.9,1.9,0,0,1,.51-.169.538.538,0,0,1,.073.113h-.017l.029.023a3.829,3.829,0,0,1,.179.5c.044.142.086.277.131.386a.715.715,0,0,0,.694.486,5.7,5.7,0,0,1,.816.017l.162.122-.061.082.111-.044.139.1L25.62,20.4l.171-.069a6.273,6.273,0,0,1,.811.189.723.723,0,0,0,.8-.293c.071-.1.145-.216.222-.342s.18-.29.267-.4l.1-.04-.053-.017a.508.508,0,0,1,.085-.083h0a1.482,1.482,0,0,1,.462.278c.076.056.146.109.2.147s.149.088.24.138c.125.068.456.248.486.336a.726.726,0,0,1-.039.115l-.159-.184.05.392c-.058.1-.125.2-.189.3-.081.121-.158.239-.218.348a.731.731,0,0,0,.1.847,5.979,5.979,0,0,1,.609.825v0a5.828,5.828,0,0,1,.446.9.7.7,0,0,0,.693.488c.125,0,.271-.022.421-.041.086-.011.18-.022.272-.03l.463.357-.148-.371a.571.571,0,0,1,.119.017,1.493,1.493,0,0,1,.081.585c0,.1,0,.2.013.272s.021.156.038.248c.023.131.084.477.027.551a.663.663,0,0,1-.107.042l.028-.156-.192.192c-.138.022-.3.036-.444.048s-.3.024-.424.045M26.414,22.2a3.95,3.95,0,0,0-4.4,1.029,3.952,3.952,0,0,0,2.935,6.511A3.811,3.811,0,0,0,25.5,29.7a3.952,3.952,0,0,0,3.35-3.656.7.7,0,0,0,.007-.079c0-.027,0-.052,0-.077A3.962,3.962,0,0,0,26.414,22.2m-1.582,6.1a2.52,2.52,0,0,1-2.37-2.589,2.508,2.508,0,0,1,2.479-2.371l.11,0a2.481,2.481,0,1,1-.218,4.957" transform="translate(0 0)" fill="#fff"/>
</svg>
